<svg width="128" height="128" viewBox="0 0 128 128" fill="none" xmlns="http://www.w3.org/2000/svg">
<g clip-path="url(#clip0_759_7106)">
<mask id="mask0_759_7106" style="mask-type:luminance" maskUnits="userSpaceOnUse" x="0" y="0" width="128" height="128">
<path fill-rule="evenodd" clip-rule="evenodd" d="M128 39.8644C128 38.3449 128.001 36.8252 127.991 35.3055C127.984 34.0254 127.969 32.7455 127.934 31.466C127.859 28.6772 127.694 25.8645 127.198 23.1067C126.695 20.3092 125.874 17.7056 124.58 15.1638C123.307 12.6654 121.645 10.3793 119.661 8.39733C117.679 6.41536 115.392 4.75416 112.893 3.4824C110.348 2.18764 107.742 1.36652 104.941 0.863686C102.183 0.368465 99.3695 0.204271 96.5807 0.128932C95.3003 0.0942909 94.0198 0.079689 92.739 0.0717667C91.2186 0.0624464 89.6981 0.0632231 88.1777 0.0632231L70.5238 0H57.32L39.9784 0.0632231C38.455 0.0632231 36.9316 0.0624464 35.4082 0.0717667C34.1248 0.079689 32.842 0.0942909 31.5591 0.128932C28.7637 0.204271 25.9439 0.36862 23.1793 0.864463C20.375 1.36714 17.7647 2.18795 15.2168 3.48177C12.7123 4.75369 10.4206 6.41504 8.43349 8.39733C6.44671 10.3791 4.78132 12.6648 3.50646 15.1627C2.20845 17.7057 1.38547 20.3109 0.881236 23.11C0.384774 25.8666 0.22027 28.6784 0.14462 31.466C0.110135 32.7457 0.0952226 34.0255 0.0874557 35.3055C0.0781353 36.8253 0 38.7132 0 40.2329L0.000466016 57.3342L0 70.6794L0.078912 88.144C0.078912 89.6657 0.0782907 91.1874 0.0874557 92.7091C0.0952226 93.991 0.110135 95.2725 0.144776 96.5539C0.22027 99.3463 0.385085 102.163 0.882013 104.925C1.38609 107.726 2.20892 110.333 3.50584 112.878C4.78086 115.38 6.44655 117.669 8.43349 119.654C10.4204 121.639 12.7115 123.302 15.2156 124.576C17.765 125.872 20.3765 126.694 23.1826 127.198C25.9459 127.694 28.7648 127.858 31.5591 127.934C32.842 127.968 34.125 127.983 35.4084 127.991C36.9318 128 38.455 128 39.9784 128L57.4767 128H70.7133L88.1777 127.999C89.6981 127.999 91.2186 128 92.739 127.991C94.0198 127.983 95.3003 127.968 96.5807 127.934C99.3706 127.858 102.185 127.694 104.944 127.197C107.743 126.694 110.348 125.872 112.891 124.576C115.391 123.303 117.678 121.639 119.661 119.654C121.644 117.669 123.307 115.381 124.579 112.879C125.874 110.333 126.696 107.724 127.199 104.921C127.695 102.161 127.859 99.3452 127.934 96.5539C127.969 95.2724 127.984 93.9908 127.991 92.7091C128.001 91.1874 128 89.6657 128 88.144C128 88.144 127.999 70.9877 127.999 70.6794V57.3202C127.999 57.0925 128 39.8644 128 39.8644Z" fill="white"/>
</mask>
<g mask="url(#mask0_759_7106)">
<rect x="-9.00977" y="-9.63104" width="141.981" height="141.981" fill="#CF0524"/>
<g filter="url(#filter0_ii_759_7106)">
<path fill-rule="evenodd" clip-rule="evenodd" d="M128 39.8644C128 38.3449 128.001 36.8252 127.991 35.3055C127.984 34.0254 127.969 32.7455 127.934 31.466C127.859 28.6772 127.694 25.8645 127.198 23.1067C126.695 20.3092 125.874 17.7056 124.58 15.1638C123.307 12.6654 121.645 10.3793 119.661 8.39733C117.679 6.41536 115.392 4.75416 112.893 3.4824C110.348 2.18764 107.742 1.36652 104.941 0.863686C102.183 0.368465 99.3695 0.204271 96.5807 0.128932C95.3003 0.0942909 94.0198 0.079689 92.739 0.0717667C91.2186 0.0624464 89.6981 0.0632231 88.1777 0.0632231L70.5238 0H57.32L39.9784 0.0632231C38.455 0.0632231 36.9316 0.0624464 35.4082 0.0717667C34.1248 0.079689 32.842 0.0942909 31.5591 0.128932C28.7637 0.204271 25.9439 0.36862 23.1793 0.864463C20.375 1.36714 17.7647 2.18795 15.2168 3.48177C12.7123 4.75369 10.4206 6.41504 8.43349 8.39733C6.44671 10.3791 4.78132 12.6648 3.50646 15.1627C2.20845 17.7057 1.38547 20.3109 0.881236 23.11C0.384774 25.8666 0.22027 28.6784 0.14462 31.466C0.110135 32.7457 0.0952226 34.0255 0.0874557 35.3055C0.0781353 36.8253 0 38.7132 0 40.2329L0.000466016 57.3342L0 70.6794L0.078912 88.144C0.078912 89.6657 0.0782907 91.1874 0.0874557 92.7091C0.0952226 93.991 0.110135 95.2725 0.144776 96.5539C0.22027 99.3463 0.385085 102.163 0.882013 104.925C1.38609 107.726 2.20892 110.333 3.50584 112.878C4.78086 115.38 6.44655 117.669 8.43349 119.654C10.4204 121.639 12.7115 123.302 15.2156 124.576C17.765 125.872 20.3765 126.694 23.1826 127.198C25.9459 127.694 28.7648 127.858 31.5591 127.934C32.842 127.968 34.125 127.983 35.4084 127.991C36.9318 128 38.455 128 39.9784 128L57.4767 128H70.7133L88.1777 127.999C89.6981 127.999 91.2186 128 92.739 127.991C94.0198 127.983 95.3003 127.968 96.5807 127.934C99.3706 127.858 102.185 127.694 104.944 127.197C107.743 126.694 110.348 125.872 112.891 124.576C115.391 123.303 117.678 121.639 119.661 119.654C121.644 117.669 123.307 115.381 124.579 112.879C125.874 110.333 126.696 107.724 127.199 104.921C127.695 102.161 127.859 99.3452 127.934 96.5539C127.969 95.2724 127.984 93.9908 127.991 92.7091C128.001 91.1874 128 89.6657 128 88.144C128 88.144 127.999 70.9877 127.999 70.6794V57.3202C127.999 57.0925 128 39.8644 128 39.8644Z" fill="url(#paint0_linear_759_7106)" fill-opacity="0.01"/>
</g>
<mask id="mask1_759_7106" style="mask-type:luminance" maskUnits="userSpaceOnUse" x="26" y="34" width="80" height="60">
<path d="M26 34.3231H106V93.1536H26V34.3231Z" fill="white"/>
</mask>
<g mask="url(#mask1_759_7106)">
<path d="M106 62.4255V65.0515C105.975 65.194 105.943 65.3338 105.927 65.4756C105.791 66.618 105.702 67.7675 105.514 68.9013C104.899 72.5864 103.57 76.0114 101.594 79.1784C98.5946 83.9868 94.5393 87.6534 89.443 90.1574C86.5016 91.6094 83.3302 92.5426 80.0695 92.9154C79.3452 92.9988 78.6216 93.0736 77.8973 93.1531H49.7926C49.651 93.1268 49.5101 93.0848 49.3672 93.0763C46.5333 92.8983 43.8067 92.2543 41.2079 91.1205C35.55 88.652 31.3314 84.6512 28.5699 79.1443C27.3496 76.7153 26.5599 74.0942 26.2357 71.3968C26.156 70.7409 26.0784 70.0857 26 69.4305V66.8825C26.027 66.7414 26.0685 66.6002 26.077 66.4584C26.2239 64.0103 26.7276 61.633 27.6145 59.3484C30.0013 53.2007 34.162 48.6412 40.0747 45.6902C43.1424 44.1585 46.4122 43.3536 49.8321 43.1751C51.5065 43.0884 53.1796 43.1816 54.8441 43.4042C54.9949 43.4246 55.2122 43.3576 55.3169 43.2506C57.7103 40.8129 60.4356 38.8329 63.5085 37.3321C66.4892 35.8766 69.626 34.9384 72.9281 34.5629C73.705 34.4743 74.484 34.4014 75.2622 34.3213H77.6583C77.815 34.3456 77.9723 34.3732 78.1291 34.3915C79.3162 34.5294 80.51 34.6161 81.6859 34.8124C85.3547 35.4262 88.77 36.7392 91.9305 38.6898C96.7766 41.6808 100.47 45.7296 102.993 50.8268C104.452 53.7609 105.389 56.9256 105.762 60.1795C105.847 60.9286 105.92 61.6777 106 62.4255ZM61.2691 45.4328C61.3172 45.4959 61.3291 45.5254 61.3495 45.5353C62.9949 46.3439 64.5675 47.2921 66.05 48.3694C66.1435 48.4371 66.3753 48.4088 66.4886 48.3379C70.563 45.7637 74.9798 44.8755 79.7244 45.7145C84.3737 46.5364 88.157 48.8526 91.0476 52.5521C94.3207 56.7387 95.5684 61.4729 94.665 66.7401C94.0593 70.2702 92.641 73.4372 90.2305 76.0902C85.8321 80.9268 80.3243 82.9272 73.8407 82.0803C69.8492 81.559 66.4036 79.8422 63.5519 76.9686C59.8917 73.2823 56.2077 69.6202 52.537 65.9437C52.0477 65.454 51.5032 65.0601 50.7987 64.9741C49.5681 64.8237 48.4514 65.4362 47.92 66.5385C47.4459 67.5227 47.5072 68.6322 48.5356 69.6406C52.6278 73.646 56.6838 77.6882 60.7714 81.6975C61.471 82.3872 62.2212 83.0238 63.016 83.6021C66.002 85.764 69.3686 86.9595 73.0143 87.4407C75.8759 87.8176 78.7151 87.7368 81.5325 87.1052C86.9067 85.9018 91.3584 83.1668 94.8645 78.9467C97.7597 75.4593 99.5105 71.4519 100.121 66.9528C100.475 64.3872 100.401 61.781 99.9022 59.2394C99.0891 55.0836 97.3258 51.3651 94.5004 48.2001C89.1098 42.1647 82.3279 39.4703 74.2575 40.0717C71.1529 40.3028 68.2163 41.2121 65.4528 42.6545C63.9616 43.427 62.5588 44.3586 61.2691 45.4328ZM59.2945 87.5655C59.1834 87.4629 59.0728 87.3598 58.9626 87.2562C57.2895 85.6812 55.6072 84.1161 53.9539 82.5208C53.6339 82.2122 53.3396 82.0619 52.8866 82.0724C51.2122 82.1131 49.5365 82.1203 47.8864 81.7487C39.6823 79.8986 34.9185 71.0048 37.9421 63.1791C40.3269 57.0085 46.9291 53.2506 53.4397 54.4094C56.3579 54.9287 58.9192 56.1603 61.0216 58.3222C63.5855 60.9614 66.2258 63.5251 68.8175 66.1374C69.4074 66.7322 70.0849 67.0033 70.9021 66.8871C71.9582 66.7368 72.799 66.2352 73.1809 65.2025C73.5549 64.1862 73.3738 63.2238 72.6021 62.4445C69.8821 59.697 67.2267 56.8805 64.3967 54.2499C58.908 49.1454 52.4356 47.6276 45.277 49.798C35.6487 52.7149 30.0138 62.6283 32.2137 72.4104C34.2186 81.3233 42.0362 87.5786 51.1839 87.5865C53.7379 87.5891 56.2927 87.5878 58.8468 87.5865C58.9732 87.5865 59.0996 87.5753 59.2945 87.5655Z" fill="url(#paint1_linear_759_7106)"/>
</g>
</g>
</g>
<defs>
<filter id="filter0_ii_759_7106" x="0" y="-3.1068" width="128" height="133.282" filterUnits="userSpaceOnUse" color-interpolation-filters="sRGB">
<feFlood flood-opacity="0" result="BackgroundImageFix"/>
<feBlend mode="normal" in="SourceGraphic" in2="BackgroundImageFix" result="shape"/>
<feColorMatrix in="SourceAlpha" type="matrix" values="0 0 0 0 0 0 0 0 0 0 0 0 0 0 0 0 0 0 127 0" result="hardAlpha"/>
<feOffset dy="-3.1068"/>
<feGaussianBlur stdDeviation="3.1068"/>
<feComposite in2="hardAlpha" operator="arithmetic" k2="-1" k3="1"/>
<feColorMatrix type="matrix" values="0 0 0 0 0 0 0 0 0 0 0 0 0 0 0 0 0 0 0.3 0"/>
<feBlend mode="normal" in2="shape" result="effect1_innerShadow_759_7106"/>
<feColorMatrix in="SourceAlpha" type="matrix" values="0 0 0 0 0 0 0 0 0 0 0 0 0 0 0 0 0 0 127 0" result="hardAlpha"/>
<feOffset dy="2.17476"/>
<feGaussianBlur stdDeviation="4.97087"/>
<feComposite in2="hardAlpha" operator="arithmetic" k2="-1" k3="1"/>
<feColorMatrix type="matrix" values="0 0 0 0 1 0 0 0 0 1 0 0 0 0 1 0 0 0 0.15 0"/>
<feBlend mode="normal" in2="effect1_innerShadow_759_7106" result="effect2_innerShadow_759_7106"/>
</filter>
<linearGradient id="paint0_linear_759_7106" x1="-43.6723" y1="0" x2="-43.6723" y2="215.345" gradientUnits="userSpaceOnUse">
<stop stop-color="white"/>
<stop offset="0.489516" stop-color="#EFEFEF"/>
<stop offset="1" stop-color="#C0C0C0"/>
</linearGradient>
<linearGradient id="paint1_linear_759_7106" x1="66" y1="34.3213" x2="66" y2="93.1531" gradientUnits="userSpaceOnUse">
<stop stop-color="white"/>
<stop offset="1" stop-color="#BBBBBB" stop-opacity="0.98"/>
</linearGradient>
<clipPath id="clip0_759_7106">
<rect width="128" height="128" fill="white"/>
</clipPath>
</defs>
</svg>
