<svg width="13" height="13" viewBox="0 0 13 13" fill="none" xmlns="http://www.w3.org/2000/svg">
<path d="M1.14597 3.64634C1.19241 3.59986 1.24755 3.56298 1.30825 3.53781C1.36895 3.51265 1.43401 3.4997 1.49972 3.4997C1.56543 3.4997 1.63049 3.51265 1.69119 3.53781C1.75189 3.56298 1.80704 3.59986 1.85347 3.64634L6.49972 8.29322L11.146 3.64634C11.2398 3.55252 11.367 3.49982 11.4997 3.49982C11.6324 3.49982 11.7597 3.55252 11.8535 3.64634C11.9473 3.74016 12 3.86741 12 4.00009C12 4.13278 11.9473 4.26003 11.8535 4.35385L6.85347 9.35384C6.80704 9.40033 6.75189 9.43721 6.69119 9.46237C6.63049 9.48754 6.56543 9.50049 6.49972 9.50049C6.43401 9.50049 6.36895 9.48754 6.30825 9.46237C6.24755 9.43721 6.19241 9.40033 6.14597 9.35384L1.14597 4.35384C1.09948 4.30741 1.0626 4.25226 1.03744 4.19156C1.01228 4.13087 0.999329 4.0658 0.999329 4.00009C0.999329 3.93439 1.01228 3.86932 1.03744 3.80862C1.0626 3.74792 1.09948 3.69278 1.14597 3.64634Z" fill="#F3F3F3"/>
</svg>
