<svg width="129" height="128" viewBox="0 0 129 128" fill="none" xmlns="http://www.w3.org/2000/svg">
<g clip-path="url(#clip0_759_7111)">
<mask id="mask0_759_7111" style="mask-type:luminance" maskUnits="userSpaceOnUse" x="0" y="0" width="129" height="128">
<path fill-rule="evenodd" clip-rule="evenodd" d="M128.4 39.8644C128.4 38.3449 128.401 36.8252 128.391 35.3055C128.384 34.0254 128.369 32.7455 128.334 31.466C128.259 28.6772 128.094 25.8645 127.598 23.1067C127.095 20.3092 126.274 17.7056 124.98 15.1638C123.707 12.6654 122.045 10.3793 120.061 8.39733C118.079 6.41536 115.792 4.75416 113.293 3.4824C110.748 2.18764 108.142 1.36652 105.341 0.863686C102.583 0.368465 99.7695 0.204271 96.9808 0.128932C95.7003 0.0942909 94.4198 0.079689 93.1391 0.0717667C91.6186 0.0624464 90.0982 0.0632231 88.5777 0.0632231L70.9238 0H57.72L40.3784 0.0632231C38.855 0.0632231 37.3316 0.0624464 35.8082 0.0717667C34.5248 0.079689 33.242 0.0942909 31.9591 0.128932C29.1638 0.204271 26.3439 0.36862 23.5793 0.864463C20.775 1.36714 18.1647 2.18795 15.6168 3.48177C13.1123 4.75369 10.8206 6.41504 8.83352 8.39733C6.84673 10.3791 5.18135 12.6648 3.90648 15.1627C2.60847 17.7057 1.78549 20.3109 1.28126 23.11C0.784798 25.8666 0.620295 28.6784 0.544645 31.466C0.51016 32.7457 0.495247 34.0255 0.48748 35.3055C0.47816 36.8253 0.400024 38.7132 0.400024 40.2329L0.40049 57.3342L0.400024 70.6794L0.478936 88.144C0.478936 89.6657 0.478315 91.1874 0.48748 92.7091C0.495247 93.991 0.51016 95.2725 0.5448 96.5539C0.620295 99.3463 0.785109 102.163 1.28204 104.925C1.78611 107.726 2.60894 110.333 3.90586 112.878C5.18088 115.38 6.84658 117.669 8.83352 119.654C10.8205 121.639 13.1115 123.302 15.6156 124.576C18.165 125.872 20.7766 126.694 23.5826 127.198C26.3459 127.694 29.1649 127.858 31.9591 127.934C33.242 127.968 34.525 127.983 35.8084 127.991C37.3318 128 38.855 128 40.3784 128L57.8767 128H71.1133L88.5777 127.999C90.0982 127.999 91.6186 128 93.1391 127.991C94.4198 127.983 95.7003 127.968 96.9808 127.934C99.7706 127.858 102.585 127.694 105.344 127.197C108.143 126.694 110.748 125.872 113.291 124.576C115.791 123.303 118.078 121.639 120.061 119.654C122.044 117.669 123.707 115.381 124.979 112.879C126.274 110.333 127.096 107.724 127.599 104.921C128.095 102.161 128.259 99.3452 128.334 96.5539C128.369 95.2724 128.384 93.9908 128.391 92.7091C128.401 91.1874 128.4 89.6657 128.4 88.144C128.4 88.144 128.399 70.9877 128.399 70.6794V57.3202C128.399 57.0925 128.4 39.8644 128.4 39.8644Z" fill="white"/>
</mask>
<g mask="url(#mask0_759_7111)">
<rect x="-8.60974" y="-9.6311" width="141.981" height="141.981" fill="#4B58EA"/>
<g filter="url(#filter0_ii_759_7111)">
<path fill-rule="evenodd" clip-rule="evenodd" d="M128.4 39.8644C128.4 38.3449 128.401 36.8252 128.391 35.3055C128.384 34.0254 128.369 32.7455 128.334 31.466C128.259 28.6772 128.094 25.8645 127.598 23.1067C127.095 20.3092 126.274 17.7056 124.98 15.1638C123.707 12.6654 122.045 10.3793 120.061 8.39733C118.079 6.41536 115.792 4.75416 113.293 3.4824C110.748 2.18764 108.142 1.36652 105.341 0.863686C102.583 0.368465 99.7695 0.204271 96.9808 0.128932C95.7003 0.0942909 94.4198 0.079689 93.1391 0.0717667C91.6186 0.0624464 90.0982 0.0632231 88.5777 0.0632231L70.9238 0H57.72L40.3784 0.0632231C38.855 0.0632231 37.3316 0.0624464 35.8082 0.0717667C34.5248 0.079689 33.242 0.0942909 31.9591 0.128932C29.1638 0.204271 26.3439 0.36862 23.5793 0.864463C20.775 1.36714 18.1647 2.18795 15.6168 3.48177C13.1123 4.75369 10.8206 6.41504 8.83352 8.39733C6.84673 10.3791 5.18135 12.6648 3.90648 15.1627C2.60847 17.7057 1.78549 20.3109 1.28126 23.11C0.784798 25.8666 0.620295 28.6784 0.544645 31.466C0.51016 32.7457 0.495247 34.0255 0.48748 35.3055C0.47816 36.8253 0.400024 38.7132 0.400024 40.2329L0.40049 57.3342L0.400024 70.6794L0.478936 88.144C0.478936 89.6657 0.478315 91.1874 0.48748 92.7091C0.495247 93.991 0.51016 95.2725 0.5448 96.5539C0.620295 99.3463 0.785109 102.163 1.28204 104.925C1.78611 107.726 2.60894 110.333 3.90586 112.878C5.18088 115.38 6.84658 117.669 8.83352 119.654C10.8205 121.639 13.1115 123.302 15.6156 124.576C18.165 125.872 20.7766 126.694 23.5826 127.198C26.3459 127.694 29.1649 127.858 31.9591 127.934C33.242 127.968 34.525 127.983 35.8084 127.991C37.3318 128 38.855 128 40.3784 128L57.8767 128H71.1133L88.5777 127.999C90.0982 127.999 91.6186 128 93.1391 127.991C94.4198 127.983 95.7003 127.968 96.9808 127.934C99.7706 127.858 102.585 127.694 105.344 127.197C108.143 126.694 110.748 125.872 113.291 124.576C115.791 123.303 118.078 121.639 120.061 119.654C122.044 117.669 123.707 115.381 124.979 112.879C126.274 110.333 127.096 107.724 127.599 104.921C128.095 102.161 128.259 99.3452 128.334 96.5539C128.369 95.2724 128.384 93.9908 128.391 92.7091C128.401 91.1874 128.4 89.6657 128.4 88.144C128.4 88.144 128.399 70.9877 128.399 70.6794V57.3202C128.399 57.0925 128.4 39.8644 128.4 39.8644Z" fill="url(#paint0_linear_759_7111)" fill-opacity="0.01"/>
</g>
<path d="M92.7793 38.9271C87.8596 36.6254 82.5993 34.9525 77.0999 34C76.4245 35.2211 75.6354 36.8635 75.0914 38.17C69.2453 37.2909 63.4529 37.2909 57.7144 38.17C57.1704 36.8635 56.3634 35.2211 55.682 34C50.1766 34.9525 44.9103 36.6315 39.9906 38.9393C30.0677 53.9341 27.3778 68.5565 28.7228 82.9712C35.3042 87.886 41.6823 90.8717 47.9528 92.8254C49.5011 90.6945 50.8819 88.4295 52.0714 86.0423C49.8059 85.1814 47.636 84.1191 45.5858 82.8858C46.1297 82.4828 46.6617 82.0615 47.1758 81.628C59.681 87.477 73.2682 87.477 85.624 81.628C86.1441 82.0615 86.676 82.4828 87.214 82.8858C85.1577 84.1251 82.9819 85.1875 80.7164 86.0484C81.9059 88.4295 83.2808 90.7007 84.835 92.8314C91.1115 90.8777 97.4956 87.8922 104.077 82.9712C105.655 66.2609 101.381 51.7728 92.7793 38.9271ZM53.7751 74.1063C50.0211 74.1063 46.9426 70.6018 46.9426 66.3341C46.9426 62.0665 49.9554 58.5559 53.7751 58.5559C57.5949 58.5559 60.6733 62.0603 60.6076 66.3341C60.6135 70.6018 57.5949 74.1063 53.7751 74.1063ZM79.0247 74.1063C75.2708 74.1063 72.1922 70.6018 72.1922 66.3341C72.1922 62.0665 75.2049 58.5559 79.0247 58.5559C82.8444 58.5559 85.9229 62.0603 85.8572 66.3341C85.8572 70.6018 82.8444 74.1063 79.0247 74.1063Z" fill="url(#paint1_linear_759_7111)"/>
</g>
</g>
<defs>
<filter id="filter0_ii_759_7111" x="0.400024" y="-3.1068" width="128" height="133.282" filterUnits="userSpaceOnUse" color-interpolation-filters="sRGB">
<feFlood flood-opacity="0" result="BackgroundImageFix"/>
<feBlend mode="normal" in="SourceGraphic" in2="BackgroundImageFix" result="shape"/>
<feColorMatrix in="SourceAlpha" type="matrix" values="0 0 0 0 0 0 0 0 0 0 0 0 0 0 0 0 0 0 127 0" result="hardAlpha"/>
<feOffset dy="-3.1068"/>
<feGaussianBlur stdDeviation="3.1068"/>
<feComposite in2="hardAlpha" operator="arithmetic" k2="-1" k3="1"/>
<feColorMatrix type="matrix" values="0 0 0 0 0 0 0 0 0 0 0 0 0 0 0 0 0 0 0.3 0"/>
<feBlend mode="normal" in2="shape" result="effect1_innerShadow_759_7111"/>
<feColorMatrix in="SourceAlpha" type="matrix" values="0 0 0 0 0 0 0 0 0 0 0 0 0 0 0 0 0 0 127 0" result="hardAlpha"/>
<feOffset dy="2.17476"/>
<feGaussianBlur stdDeviation="4.97087"/>
<feComposite in2="hardAlpha" operator="arithmetic" k2="-1" k3="1"/>
<feColorMatrix type="matrix" values="0 0 0 0 1 0 0 0 0 1 0 0 0 0 1 0 0 0 0.15 0"/>
<feBlend mode="normal" in2="effect1_innerShadow_759_7111" result="effect2_innerShadow_759_7111"/>
</filter>
<linearGradient id="paint0_linear_759_7111" x1="-43.2723" y1="0" x2="-43.2723" y2="215.345" gradientUnits="userSpaceOnUse">
<stop stop-color="white"/>
<stop offset="0.489516" stop-color="#EFEFEF"/>
<stop offset="1" stop-color="#C0C0C0"/>
</linearGradient>
<linearGradient id="paint1_linear_759_7111" x1="65.781" y1="62.8734" x2="69.345" y2="92.4768" gradientUnits="userSpaceOnUse">
<stop stop-color="white"/>
<stop offset="1" stop-color="#AAB1FF"/>
</linearGradient>
<clipPath id="clip0_759_7111">
<rect width="128" height="128" fill="white" transform="translate(0.400024)"/>
</clipPath>
</defs>
</svg>
