<svg width="129" height="128" viewBox="0 0 129 128" fill="none" xmlns="http://www.w3.org/2000/svg">
<g clip-path="url(#clip0_759_7112)">
<mask id="mask0_759_7112" style="mask-type:luminance" maskUnits="userSpaceOnUse" x="0" y="0" width="129" height="128">
<path fill-rule="evenodd" clip-rule="evenodd" d="M128.2 39.8644C128.2 38.3449 128.201 36.8252 128.191 35.3055C128.184 34.0254 128.169 32.7455 128.134 31.466C128.059 28.6772 127.894 25.8645 127.398 23.1067C126.895 20.3092 126.074 17.7056 124.78 15.1638C123.507 12.6654 121.845 10.3793 119.861 8.39733C117.879 6.41536 115.592 4.75416 113.093 3.4824C110.548 2.18764 107.942 1.36652 105.141 0.863686C102.383 0.368465 99.5695 0.204271 96.7807 0.128932C95.5003 0.0942909 94.2198 0.079689 92.9391 0.0717667C91.4186 0.0624464 89.8981 0.0632231 88.3777 0.0632231L70.7238 0H57.52L40.1784 0.0632231C38.655 0.0632231 37.1316 0.0624464 35.6082 0.0717667C34.3248 0.079689 33.042 0.0942909 31.7591 0.128932C28.9638 0.204271 26.1439 0.36862 23.3793 0.864463C20.575 1.36714 17.9647 2.18795 15.4168 3.48177C12.9123 4.75369 10.6206 6.41504 8.6335 8.39733C6.64672 10.3791 4.98134 12.6648 3.70647 15.1627C2.40846 17.7057 1.58548 20.3109 1.08125 23.11C0.584786 25.8666 0.420282 28.6784 0.344632 31.466C0.310147 32.7457 0.295235 34.0255 0.287468 35.3055C0.278148 36.8253 0.200012 38.7132 0.200012 40.2329L0.200478 57.3342L0.200012 70.6794L0.278924 88.144C0.278924 89.6657 0.278303 91.1874 0.287468 92.7091C0.295235 93.991 0.310147 95.2725 0.344788 96.5539C0.420282 99.3463 0.585097 102.163 1.08203 104.925C1.5861 107.726 2.40893 110.333 3.70585 112.878C4.98087 115.38 6.64657 117.669 8.6335 119.654C10.6204 121.639 12.9115 123.302 15.4156 124.576C17.965 125.872 20.5766 126.694 23.3826 127.198C26.1459 127.694 28.9648 127.858 31.7591 127.934C33.042 127.968 34.325 127.983 35.6084 127.991C37.1318 128 38.655 128 40.1784 128L57.6767 128H70.9133L88.3777 127.999C89.8981 127.999 91.4186 128 92.9391 127.991C94.2198 127.983 95.5003 127.968 96.7807 127.934C99.5706 127.858 102.385 127.694 105.144 127.197C107.943 126.694 110.548 125.872 113.091 124.576C115.591 123.303 117.878 121.639 119.861 119.654C121.844 117.669 123.507 115.381 124.779 112.879C126.074 110.333 126.896 107.724 127.399 104.921C127.895 102.161 128.059 99.3452 128.134 96.5539C128.169 95.2724 128.184 93.9908 128.191 92.7091C128.201 91.1874 128.2 89.6657 128.2 88.144C128.2 88.144 128.199 70.9877 128.199 70.6794V57.3202C128.199 57.0925 128.2 39.8644 128.2 39.8644Z" fill="white"/>
</mask>
<g mask="url(#mask0_759_7112)">
<rect x="-8.80975" y="-9.6311" width="141.981" height="141.981" fill="#101010"/>
<g filter="url(#filter0_ii_759_7112)">
<path fill-rule="evenodd" clip-rule="evenodd" d="M128.2 39.8644C128.2 38.3449 128.201 36.8252 128.191 35.3055C128.184 34.0254 128.169 32.7455 128.134 31.466C128.059 28.6772 127.894 25.8645 127.398 23.1067C126.895 20.3092 126.074 17.7056 124.78 15.1638C123.507 12.6654 121.845 10.3793 119.861 8.39733C117.879 6.41536 115.592 4.75416 113.093 3.4824C110.548 2.18764 107.942 1.36652 105.141 0.863686C102.383 0.368465 99.5695 0.204271 96.7807 0.128932C95.5003 0.0942909 94.2198 0.079689 92.9391 0.0717667C91.4186 0.0624464 89.8981 0.0632231 88.3777 0.0632231L70.7238 0H57.52L40.1784 0.0632231C38.655 0.0632231 37.1316 0.0624464 35.6082 0.0717667C34.3248 0.079689 33.042 0.0942909 31.7591 0.128932C28.9638 0.204271 26.1439 0.36862 23.3793 0.864463C20.575 1.36714 17.9647 2.18795 15.4168 3.48177C12.9123 4.75369 10.6206 6.41504 8.6335 8.39733C6.64672 10.3791 4.98134 12.6648 3.70647 15.1627C2.40846 17.7057 1.58548 20.3109 1.08125 23.11C0.584786 25.8666 0.420282 28.6784 0.344632 31.466C0.310147 32.7457 0.295235 34.0255 0.287468 35.3055C0.278148 36.8253 0.200012 38.7132 0.200012 40.2329L0.200478 57.3342L0.200012 70.6794L0.278924 88.144C0.278924 89.6657 0.278303 91.1874 0.287468 92.7091C0.295235 93.991 0.310147 95.2725 0.344788 96.5539C0.420282 99.3463 0.585097 102.163 1.08203 104.925C1.5861 107.726 2.40893 110.333 3.70585 112.878C4.98087 115.38 6.64657 117.669 8.6335 119.654C10.6204 121.639 12.9115 123.302 15.4156 124.576C17.965 125.872 20.5766 126.694 23.3826 127.198C26.1459 127.694 28.9648 127.858 31.7591 127.934C33.042 127.968 34.325 127.983 35.6084 127.991C37.1318 128 38.655 128 40.1784 128L57.6767 128H70.9133L88.3777 127.999C89.8981 127.999 91.4186 128 92.9391 127.991C94.2198 127.983 95.5003 127.968 96.7807 127.934C99.5706 127.858 102.385 127.694 105.144 127.197C107.943 126.694 110.548 125.872 113.091 124.576C115.591 123.303 117.878 121.639 119.861 119.654C121.844 117.669 123.507 115.381 124.779 112.879C126.074 110.333 126.896 107.724 127.399 104.921C127.895 102.161 128.059 99.3452 128.134 96.5539C128.169 95.2724 128.184 93.9908 128.191 92.7091C128.201 91.1874 128.2 89.6657 128.2 88.144C128.2 88.144 128.199 70.9877 128.199 70.6794V57.3202C128.199 57.0925 128.2 39.8644 128.2 39.8644Z" fill="url(#paint0_linear_759_7112)" fill-opacity="0.01"/>
</g>
<g filter="url(#filter1_dd_759_7112)">
<path fill-rule="evenodd" clip-rule="evenodd" d="M66.0815 25.1102C44.1939 25.1102 26.4998 42.9347 26.4998 64.986C26.4998 82.6128 37.837 97.5336 53.5647 102.814C55.531 103.211 56.2513 101.956 56.2513 100.901C56.2513 99.9763 56.1865 96.8076 56.1865 93.506C45.1758 95.8832 42.883 88.7526 42.883 88.7526C41.1135 84.1312 38.4916 82.9434 38.4916 82.9434C34.8879 80.5006 38.7542 80.5006 38.7542 80.5006C42.7517 80.7648 44.8493 84.5938 44.8493 84.5938C48.3875 90.6671 54.0889 88.9511 56.3826 87.8946C56.7099 85.3197 57.7591 83.5373 58.8731 82.5472C50.0913 81.6228 40.8518 78.1899 40.8518 62.873C40.8518 58.5158 42.4236 54.9509 44.9141 52.1783C44.5212 51.1883 43.1446 47.0943 45.3079 41.6149C45.3079 41.6149 48.65 40.5584 56.1857 45.708C59.412 44.8352 62.7392 44.3912 66.0815 44.3874C69.4236 44.3874 72.8305 44.85 75.9765 45.708C83.5131 40.5584 86.8552 41.6149 86.8552 41.6149C89.0184 47.0943 87.6411 51.1883 87.2481 52.1783C89.8043 54.9509 91.3113 58.5158 91.3113 62.873C91.3113 78.1899 82.0717 81.5563 73.2243 82.5472C74.6664 83.8014 75.9109 86.1777 75.9109 89.9411C75.9109 95.2885 75.8461 99.5801 75.8461 100.9C75.8461 101.956 76.5672 103.211 78.5327 102.815C94.2604 97.5328 105.598 82.6128 105.598 64.986C105.662 42.9347 87.9036 25.1102 66.0815 25.1102Z" fill="url(#paint1_linear_759_7112)"/>
</g>
</g>
</g>
<defs>
<filter id="filter0_ii_759_7112" x="0.200012" y="-3.1068" width="128" height="133.282" filterUnits="userSpaceOnUse" color-interpolation-filters="sRGB">
<feFlood flood-opacity="0" result="BackgroundImageFix"/>
<feBlend mode="normal" in="SourceGraphic" in2="BackgroundImageFix" result="shape"/>
<feColorMatrix in="SourceAlpha" type="matrix" values="0 0 0 0 0 0 0 0 0 0 0 0 0 0 0 0 0 0 127 0" result="hardAlpha"/>
<feOffset dy="-3.1068"/>
<feGaussianBlur stdDeviation="3.1068"/>
<feComposite in2="hardAlpha" operator="arithmetic" k2="-1" k3="1"/>
<feColorMatrix type="matrix" values="0 0 0 0 0 0 0 0 0 0 0 0 0 0 0 0 0 0 0.3 0"/>
<feBlend mode="normal" in2="shape" result="effect1_innerShadow_759_7112"/>
<feColorMatrix in="SourceAlpha" type="matrix" values="0 0 0 0 0 0 0 0 0 0 0 0 0 0 0 0 0 0 127 0" result="hardAlpha"/>
<feOffset dy="2.17476"/>
<feGaussianBlur stdDeviation="4.97087"/>
<feComposite in2="hardAlpha" operator="arithmetic" k2="-1" k3="1"/>
<feColorMatrix type="matrix" values="0 0 0 0 1 0 0 0 0 1 0 0 0 0 1 0 0 0 0.15 0"/>
<feBlend mode="normal" in2="effect1_innerShadow_759_7112" result="effect2_innerShadow_759_7112"/>
</filter>
<filter id="filter1_dd_759_7112" x="11.7028" y="14.0125" width="108.692" height="107.374" filterUnits="userSpaceOnUse" color-interpolation-filters="sRGB">
<feFlood flood-opacity="0" result="BackgroundImageFix"/>
<feColorMatrix in="SourceAlpha" type="matrix" values="0 0 0 0 0 0 0 0 0 0 0 0 0 0 0 0 0 0 127 0" result="hardAlpha"/>
<feMorphology radius="3.69925" operator="dilate" in="SourceAlpha" result="effect1_dropShadow_759_7112"/>
<feOffset dy="3.69925"/>
<feGaussianBlur stdDeviation="5.54888"/>
<feColorMatrix type="matrix" values="0 0 0 0 0 0 0 0 0 0 0 0 0 0 0 0 0 0 0.15 0"/>
<feBlend mode="normal" in2="BackgroundImageFix" result="effect1_dropShadow_759_7112"/>
<feColorMatrix in="SourceAlpha" type="matrix" values="0 0 0 0 0 0 0 0 0 0 0 0 0 0 0 0 0 0 127 0" result="hardAlpha"/>
<feOffset dy="1.84963"/>
<feGaussianBlur stdDeviation="1.84963"/>
<feColorMatrix type="matrix" values="0 0 0 0 0 0 0 0 0 0 0 0 0 0 0 0 0 0 0.3 0"/>
<feBlend mode="normal" in2="effect1_dropShadow_759_7112" result="effect2_dropShadow_759_7112"/>
<feBlend mode="normal" in="SourceGraphic" in2="effect2_dropShadow_759_7112" result="shape"/>
</filter>
<linearGradient id="paint0_linear_759_7112" x1="-43.4723" y1="0" x2="-43.4723" y2="215.345" gradientUnits="userSpaceOnUse">
<stop stop-color="white"/>
<stop offset="0.489516" stop-color="#EFEFEF"/>
<stop offset="1" stop-color="#C0C0C0"/>
</linearGradient>
<linearGradient id="paint1_linear_759_7112" x1="66.0488" y1="25.1102" x2="66.0488" y2="102.89" gradientUnits="userSpaceOnUse">
<stop stop-color="#F1F1F1"/>
<stop offset="1" stop-color="white" stop-opacity="0.42"/>
</linearGradient>
<clipPath id="clip0_759_7112">
<rect width="128" height="128" fill="white" transform="translate(0.200012)"/>
</clipPath>
</defs>
</svg>
