<svg width="129" height="128" viewBox="0 0 129 128" fill="none" xmlns="http://www.w3.org/2000/svg">
<g clip-path="url(#clip0_759_7110)">
<mask id="mask0_759_7110" style="mask-type:luminance" maskUnits="userSpaceOnUse" x="0" y="0" width="129" height="128">
<path fill-rule="evenodd" clip-rule="evenodd" d="M128.6 39.8644C128.6 38.3449 128.601 36.8252 128.591 35.3055C128.584 34.0254 128.569 32.7455 128.534 31.466C128.459 28.6772 128.294 25.8645 127.798 23.1067C127.295 20.3092 126.474 17.7056 125.18 15.1638C123.907 12.6654 122.245 10.3793 120.261 8.39733C118.279 6.41536 115.992 4.75416 113.493 3.4824C110.948 2.18764 108.342 1.36652 105.541 0.863686C102.783 0.368465 99.9695 0.204271 97.1807 0.128932C95.9003 0.0942909 94.6198 0.079689 93.3391 0.0717667C91.8186 0.0624464 90.2981 0.0632231 88.7777 0.0632231L71.1238 0H57.92L40.5784 0.0632231C39.055 0.0632231 37.5316 0.0624464 36.0082 0.0717667C34.7248 0.079689 33.442 0.0942909 32.1591 0.128932C29.3638 0.204271 26.5439 0.36862 23.7793 0.864463C20.975 1.36714 18.3647 2.18795 15.8168 3.48177C13.3123 4.75369 11.0206 6.41504 9.0335 8.39733C7.04672 10.3791 5.38133 12.6648 4.10647 15.1627C2.80846 17.7057 1.98547 20.3109 1.48124 23.11C0.98478 25.8666 0.820276 28.6784 0.744626 31.466C0.710141 32.7457 0.695229 34.0255 0.687462 35.3055C0.678141 36.8253 0.600006 38.7132 0.600006 40.2329L0.600472 57.3342L0.600006 70.6794L0.678918 88.144C0.678918 89.6657 0.678297 91.1874 0.687462 92.7091C0.695229 93.991 0.710141 95.2725 0.744782 96.5539C0.820276 99.3463 0.985091 102.163 1.48202 104.925C1.98609 107.726 2.80892 110.333 4.10584 112.878C5.38086 115.38 7.04656 117.669 9.0335 119.654C11.0204 121.639 13.3115 123.302 15.8156 124.576C18.365 125.872 20.9766 126.694 23.7826 127.198C26.5459 127.694 29.3648 127.858 32.1591 127.934C33.442 127.968 34.725 127.983 36.0084 127.991C37.5318 128 39.055 128 40.5784 128L58.0767 128H71.3133L88.7777 127.999C90.2981 127.999 91.8186 128 93.3391 127.991C94.6198 127.983 95.9003 127.968 97.1807 127.934C99.9706 127.858 102.785 127.694 105.544 127.197C108.343 126.694 110.948 125.872 113.491 124.576C115.991 123.303 118.278 121.639 120.261 119.654C122.244 117.669 123.907 115.381 125.179 112.879C126.474 110.333 127.296 107.724 127.799 104.921C128.295 102.161 128.459 99.3452 128.534 96.5539C128.569 95.2724 128.584 93.9908 128.591 92.7091C128.601 91.1874 128.6 89.6657 128.6 88.144C128.6 88.144 128.599 70.9877 128.599 70.6794V57.3202C128.599 57.0925 128.6 39.8644 128.6 39.8644Z" fill="white"/>
</mask>
<g mask="url(#mask0_759_7110)">
<rect x="-8.40976" y="-9.6311" width="141.981" height="141.981" fill="#101010"/>
<g filter="url(#filter0_ii_759_7110)">
<path fill-rule="evenodd" clip-rule="evenodd" d="M128.6 39.8644C128.6 38.3449 128.601 36.8252 128.591 35.3055C128.584 34.0254 128.569 32.7455 128.534 31.466C128.459 28.6772 128.294 25.8645 127.798 23.1067C127.295 20.3092 126.474 17.7056 125.18 15.1638C123.907 12.6654 122.245 10.3793 120.261 8.39733C118.279 6.41536 115.992 4.75416 113.493 3.4824C110.948 2.18764 108.342 1.36652 105.541 0.863686C102.783 0.368465 99.9695 0.204271 97.1807 0.128932C95.9003 0.0942909 94.6198 0.079689 93.3391 0.0717667C91.8186 0.0624464 90.2981 0.0632231 88.7777 0.0632231L71.1238 0H57.92L40.5784 0.0632231C39.055 0.0632231 37.5316 0.0624464 36.0082 0.0717667C34.7248 0.079689 33.442 0.0942909 32.1591 0.128932C29.3638 0.204271 26.5439 0.36862 23.7793 0.864463C20.975 1.36714 18.3647 2.18795 15.8168 3.48177C13.3123 4.75369 11.0206 6.41504 9.0335 8.39733C7.04672 10.3791 5.38133 12.6648 4.10647 15.1627C2.80846 17.7057 1.98547 20.3109 1.48124 23.11C0.98478 25.8666 0.820276 28.6784 0.744626 31.466C0.710141 32.7457 0.695229 34.0255 0.687462 35.3055C0.678141 36.8253 0.600006 38.7132 0.600006 40.2329L0.600472 57.3342L0.600006 70.6794L0.678918 88.144C0.678918 89.6657 0.678297 91.1874 0.687462 92.7091C0.695229 93.991 0.710141 95.2725 0.744782 96.5539C0.820276 99.3463 0.985091 102.163 1.48202 104.925C1.98609 107.726 2.80892 110.333 4.10584 112.878C5.38086 115.38 7.04656 117.669 9.0335 119.654C11.0204 121.639 13.3115 123.302 15.8156 124.576C18.365 125.872 20.9766 126.694 23.7826 127.198C26.5459 127.694 29.3648 127.858 32.1591 127.934C33.442 127.968 34.725 127.983 36.0084 127.991C37.5318 128 39.055 128 40.5784 128L58.0767 128H71.3133L88.7777 127.999C90.2981 127.999 91.8186 128 93.3391 127.991C94.6198 127.983 95.9003 127.968 97.1807 127.934C99.9706 127.858 102.785 127.694 105.544 127.197C108.343 126.694 110.948 125.872 113.491 124.576C115.991 123.303 118.278 121.639 120.261 119.654C122.244 117.669 123.907 115.381 125.179 112.879C126.474 110.333 127.296 107.724 127.799 104.921C128.295 102.161 128.459 99.3452 128.534 96.5539C128.569 95.2724 128.584 93.9908 128.591 92.7091C128.601 91.1874 128.6 89.6657 128.6 88.144C128.6 88.144 128.599 70.9877 128.599 70.6794V57.3202C128.599 57.0925 128.6 39.8644 128.6 39.8644Z" fill="url(#paint0_linear_759_7110)" fill-opacity="0.01"/>
</g>
<path d="M36.3358 86.9691L39.511 92.4536C40.1708 93.6082 41.1193 94.5155 42.2327 95.1753L53.5729 75.5464H30.8925C30.8925 76.8247 31.2224 78.1031 31.8822 79.2577L36.3358 86.9691Z" fill="url(#paint1_linear_759_7110)"/>
<path d="M66.8925 52.4536L55.5523 32.8247C54.4389 33.4845 53.4904 34.3917 52.8306 35.5464L31.8822 71.835C31.2345 72.9648 30.8933 74.2441 30.8925 75.5464H53.5729L66.8925 52.4536Z" fill="url(#paint2_linear_759_7110)"/>
<path d="M91.5522 95.1753C92.6656 94.5155 93.6141 93.6082 94.2739 92.4536L95.5934 90.1856L101.903 79.2577C102.563 78.1031 102.892 76.8247 102.892 75.5464H80.2104L85.0367 85.0309L91.5522 95.1753Z" fill="url(#paint3_linear_759_7110)"/>
<path d="M66.8924 52.4536L78.2326 32.8247C77.1192 32.1649 75.8408 31.835 74.5212 31.835H59.2635C57.9439 31.835 56.6656 32.2062 55.5522 32.8247L66.8924 52.4536Z" fill="url(#paint4_linear_759_7110)"/>
<path d="M80.2117 75.5464H53.5725L42.2323 95.1753C43.3457 95.835 44.6241 96.1649 45.9437 96.1649H87.8406C89.1602 96.1649 90.4385 95.7938 91.5519 95.1753L80.2117 75.5464Z" fill="url(#paint5_linear_759_7110)"/>
<path d="M91.4286 53.6907L80.9543 35.5464C80.2945 34.3917 79.3461 33.4845 78.2327 32.8247L66.8925 52.4536L80.2121 75.5464H102.851C102.851 74.268 102.521 72.9897 101.862 71.835L91.4286 53.6907Z" fill="url(#paint6_linear_759_7110)"/>
</g>
</g>
<defs>
<filter id="filter0_ii_759_7110" x="0.600006" y="-3.1068" width="128" height="133.282" filterUnits="userSpaceOnUse" color-interpolation-filters="sRGB">
<feFlood flood-opacity="0" result="BackgroundImageFix"/>
<feBlend mode="normal" in="SourceGraphic" in2="BackgroundImageFix" result="shape"/>
<feColorMatrix in="SourceAlpha" type="matrix" values="0 0 0 0 0 0 0 0 0 0 0 0 0 0 0 0 0 0 127 0" result="hardAlpha"/>
<feOffset dy="-3.1068"/>
<feGaussianBlur stdDeviation="3.1068"/>
<feComposite in2="hardAlpha" operator="arithmetic" k2="-1" k3="1"/>
<feColorMatrix type="matrix" values="0 0 0 0 0 0 0 0 0 0 0 0 0 0 0 0 0 0 0.3 0"/>
<feBlend mode="normal" in2="shape" result="effect1_innerShadow_759_7110"/>
<feColorMatrix in="SourceAlpha" type="matrix" values="0 0 0 0 0 0 0 0 0 0 0 0 0 0 0 0 0 0 127 0" result="hardAlpha"/>
<feOffset dy="2.17476"/>
<feGaussianBlur stdDeviation="4.97087"/>
<feComposite in2="hardAlpha" operator="arithmetic" k2="-1" k3="1"/>
<feColorMatrix type="matrix" values="0 0 0 0 1 0 0 0 0 1 0 0 0 0 1 0 0 0 0.15 0"/>
<feBlend mode="normal" in2="effect1_innerShadow_759_7110" result="effect2_innerShadow_759_7110"/>
</filter>
<linearGradient id="paint0_linear_759_7110" x1="-43.0723" y1="0" x2="-43.0723" y2="215.345" gradientUnits="userSpaceOnUse">
<stop stop-color="white"/>
<stop offset="0.489516" stop-color="#EFEFEF"/>
<stop offset="1" stop-color="#C0C0C0"/>
</linearGradient>
<linearGradient id="paint1_linear_759_7110" x1="42.2327" y1="75.5464" x2="42.2327" y2="95.1753" gradientUnits="userSpaceOnUse">
<stop stop-color="#0066DA"/>
<stop offset="1" stop-color="#004CA3"/>
</linearGradient>
<linearGradient id="paint2_linear_759_7110" x1="48.6002" y1="43" x2="54.6002" y2="72" gradientUnits="userSpaceOnUse">
<stop stop-color="#34A853"/>
<stop offset="1" stop-color="#0E6E27"/>
</linearGradient>
<linearGradient id="paint3_linear_759_7110" x1="91.5514" y1="75.5464" x2="91.5514" y2="95.1753" gradientUnits="userSpaceOnUse">
<stop stop-color="#EB4335"/>
<stop offset="1" stop-color="#A6251A"/>
</linearGradient>
<linearGradient id="paint4_linear_759_7110" x1="57.6001" y1="31.9999" x2="72.6001" y2="54.9999" gradientUnits="userSpaceOnUse">
<stop stop-color="#048631"/>
<stop offset="1" stop-color="#04732A"/>
</linearGradient>
<linearGradient id="paint5_linear_759_7110" x1="66.5998" y1="76" x2="68.5998" y2="96" gradientUnits="userSpaceOnUse">
<stop stop-color="#4285F4"/>
<stop offset="1" stop-color="#134598"/>
</linearGradient>
<linearGradient id="paint6_linear_759_7110" x1="81.6002" y1="39.9999" x2="71.6002" y2="69" gradientUnits="userSpaceOnUse">
<stop stop-color="#FBBC05"/>
<stop offset="1" stop-color="#C98115"/>
</linearGradient>
<clipPath id="clip0_759_7110">
<rect width="128" height="128" fill="white" transform="translate(0.600006)"/>
</clipPath>
</defs>
</svg>
