<svg width="129" height="128" viewBox="0 0 129 128" fill="none" xmlns="http://www.w3.org/2000/svg">
<g clip-path="url(#clip0_759_7102)">
<mask id="mask0_759_7102" style="mask-type:luminance" maskUnits="userSpaceOnUse" x="0" y="0" width="129" height="128">
<path fill-rule="evenodd" clip-rule="evenodd" d="M128.8 39.8644C128.8 38.3449 128.801 36.8252 128.791 35.3055C128.784 34.0254 128.769 32.7455 128.734 31.466C128.659 28.6772 128.494 25.8645 127.998 23.1067C127.495 20.3092 126.674 17.7056 125.38 15.1638C124.107 12.6654 122.445 10.3793 120.461 8.39733C118.479 6.41536 116.192 4.75416 113.693 3.4824C111.148 2.18764 108.542 1.36652 105.741 0.863686C102.983 0.368465 100.17 0.204271 97.3807 0.128932C96.1003 0.0942909 94.8198 0.079689 93.539 0.0717667C92.0186 0.0624464 90.4981 0.0632231 88.9777 0.0632231L71.3237 0H58.12L40.7784 0.0632231C39.255 0.0632231 37.7316 0.0624464 36.2082 0.0717667C34.9248 0.079689 33.642 0.0942909 32.3591 0.128932C29.5637 0.204271 26.7439 0.36862 23.9793 0.864463C21.175 1.36714 18.5647 2.18795 16.0168 3.48177C13.5123 4.75369 11.2206 6.41504 9.23348 8.39733C7.2467 10.3791 5.58131 12.6648 4.30645 15.1627C3.00844 17.7057 2.18545 20.3109 1.68122 23.11C1.18476 25.8666 1.02026 28.6784 0.944608 31.466C0.910123 32.7457 0.89521 34.0255 0.887443 35.3055C0.878123 36.8253 0.799988 38.7132 0.799988 40.2329L0.800454 57.3342L0.799988 70.6794L0.8789 88.144C0.8789 89.6657 0.878278 91.1874 0.887443 92.7091C0.89521 93.991 0.910123 95.2725 0.944763 96.5539C1.02026 99.3463 1.18507 102.163 1.682 104.925C2.18607 107.726 3.0089 110.333 4.30583 112.878C5.58085 115.38 7.24654 117.669 9.23348 119.654C11.2204 121.639 13.5115 123.302 16.0156 124.576C18.565 125.872 21.1765 126.694 23.9826 127.198C26.7459 127.694 29.5648 127.858 32.3591 127.934C33.642 127.968 34.9249 127.983 36.2083 127.991C37.7318 128 39.255 128 40.7784 128L58.2767 128H71.5133L88.9777 127.999C90.4981 127.999 92.0186 128 93.539 127.991C94.8198 127.983 96.1003 127.968 97.3807 127.934C100.171 127.858 102.985 127.694 105.744 127.197C108.543 126.694 111.148 125.872 113.691 124.576C116.191 123.303 118.478 121.639 120.461 119.654C122.444 117.669 124.107 115.381 125.379 112.879C126.674 110.333 127.496 107.724 127.999 104.921C128.495 102.161 128.659 99.3452 128.734 96.5539C128.769 95.2724 128.784 93.9908 128.791 92.7091C128.801 91.1874 128.8 89.6657 128.8 88.144C128.8 88.144 128.799 70.9877 128.799 70.6794V57.3202C128.799 57.0925 128.8 39.8644 128.8 39.8644Z" fill="white"/>
</mask>
<g mask="url(#mask0_759_7102)">
<rect x="-8.20978" y="-9.63104" width="141.981" height="141.981" fill="#101010"/>
<g filter="url(#filter0_ii_759_7102)">
<path fill-rule="evenodd" clip-rule="evenodd" d="M128.8 39.8644C128.8 38.3449 128.801 36.8252 128.791 35.3055C128.784 34.0254 128.769 32.7455 128.734 31.466C128.659 28.6772 128.494 25.8645 127.998 23.1067C127.495 20.3092 126.674 17.7056 125.38 15.1638C124.107 12.6654 122.445 10.3793 120.461 8.39733C118.479 6.41536 116.192 4.75416 113.693 3.4824C111.148 2.18764 108.542 1.36652 105.741 0.863686C102.983 0.368465 100.17 0.204271 97.3807 0.128932C96.1003 0.0942909 94.8198 0.079689 93.539 0.0717667C92.0186 0.0624464 90.4981 0.0632231 88.9777 0.0632231L71.3237 0H58.12L40.7784 0.0632231C39.255 0.0632231 37.7316 0.0624464 36.2082 0.0717667C34.9248 0.079689 33.642 0.0942909 32.3591 0.128932C29.5637 0.204271 26.7439 0.36862 23.9793 0.864463C21.175 1.36714 18.5647 2.18795 16.0168 3.48177C13.5123 4.75369 11.2206 6.41504 9.23348 8.39733C7.2467 10.3791 5.58131 12.6648 4.30645 15.1627C3.00844 17.7057 2.18545 20.3109 1.68122 23.11C1.18476 25.8666 1.02026 28.6784 0.944608 31.466C0.910123 32.7457 0.89521 34.0255 0.887443 35.3055C0.878123 36.8253 0.799988 38.7132 0.799988 40.2329L0.800454 57.3342L0.799988 70.6794L0.8789 88.144C0.8789 89.6657 0.878278 91.1874 0.887443 92.7091C0.89521 93.991 0.910123 95.2725 0.944763 96.5539C1.02026 99.3463 1.18507 102.163 1.682 104.925C2.18607 107.726 3.0089 110.333 4.30583 112.878C5.58085 115.38 7.24654 117.669 9.23348 119.654C11.2204 121.639 13.5115 123.302 16.0156 124.576C18.565 125.872 21.1765 126.694 23.9826 127.198C26.7459 127.694 29.5648 127.858 32.3591 127.934C33.642 127.968 34.9249 127.983 36.2083 127.991C37.7318 128 39.255 128 40.7784 128L58.2767 128H71.5133L88.9777 127.999C90.4981 127.999 92.0186 128 93.539 127.991C94.8198 127.983 96.1003 127.968 97.3807 127.934C100.171 127.858 102.985 127.694 105.744 127.197C108.543 126.694 111.148 125.872 113.691 124.576C116.191 123.303 118.478 121.639 120.461 119.654C122.444 117.669 124.107 115.381 125.379 112.879C126.674 110.333 127.496 107.724 127.999 104.921C128.495 102.161 128.659 99.3452 128.734 96.5539C128.769 95.2724 128.784 93.9908 128.791 92.7091C128.801 91.1874 128.8 89.6657 128.8 88.144C128.8 88.144 128.799 70.9877 128.799 70.6794V57.3202C128.799 57.0925 128.8 39.8644 128.8 39.8644Z" fill="#360404"/>
</g>
<g filter="url(#filter1_dd_759_7102)">
<path d="M67.117 76.0382H50.211L46.7571 86.718C46.6662 87.127 46.3026 87.3997 45.8936 87.3543H37.3497C36.8498 87.3543 36.7134 87.0816 36.8498 86.5362L51.4835 44.4076C51.6198 43.9531 51.7561 43.4532 51.9379 42.9078C52.1197 41.9535 52.2106 40.9536 52.2106 39.9538C52.1652 39.7266 52.347 39.4994 52.5742 39.4539H64.3448C64.7083 39.4539 64.8901 39.5903 64.9356 39.8175L81.5235 86.6271C81.6598 87.127 81.5235 87.3543 81.069 87.3543H71.5707C71.2526 87.3997 70.9345 87.1725 70.8436 86.8544L67.117 76.0382ZM52.8469 66.8126H64.3902C64.1175 65.8582 63.754 64.722 63.3449 63.5404C62.9359 62.3134 62.5269 60.9954 62.1179 59.6321C61.6634 58.2232 61.2544 56.8598 60.8 55.451C60.3455 54.0422 59.9365 52.7242 59.5729 51.4063C59.2093 50.1338 58.8912 48.9522 58.5731 47.8615H58.4822C58.0732 49.8157 57.5733 51.7699 56.937 53.724C56.2553 55.9055 55.5736 58.1778 54.8465 60.4501C54.2102 62.7678 53.5286 64.9038 52.8469 66.8126ZM91.658 47.407C90.1582 47.4525 88.704 46.8617 87.6133 45.8164C86.568 44.6802 86.0226 43.1805 86.0681 41.6353C86.0226 40.0902 86.6134 38.6359 87.7041 37.5906C88.7949 36.5454 90.2491 36 91.7489 36C93.5213 36 94.8847 36.5454 95.8845 37.5906C96.8843 38.6813 97.4296 40.1356 97.3842 41.6353C97.4296 43.1805 96.8843 44.6802 95.7936 45.8164C94.7483 46.9071 93.2031 47.4979 91.658 47.407ZM86.568 86.8544V51.8607C86.568 51.4063 86.7498 51.2245 87.1588 51.2245H96.1571C96.5662 51.2245 96.7479 51.4517 96.7479 51.8607V86.8544C96.7479 87.3543 96.5662 87.5815 96.1571 87.5815H87.2497C86.7952 87.5815 86.568 87.3088 86.568 86.8544Z" fill="url(#paint0_linear_759_7102)"/>
</g>
</g>
</g>
<defs>
<filter id="filter0_ii_759_7102" x="0.799988" y="-3.1068" width="128" height="133.282" filterUnits="userSpaceOnUse" color-interpolation-filters="sRGB">
<feFlood flood-opacity="0" result="BackgroundImageFix"/>
<feBlend mode="normal" in="SourceGraphic" in2="BackgroundImageFix" result="shape"/>
<feColorMatrix in="SourceAlpha" type="matrix" values="0 0 0 0 0 0 0 0 0 0 0 0 0 0 0 0 0 0 127 0" result="hardAlpha"/>
<feOffset dy="-3.1068"/>
<feGaussianBlur stdDeviation="3.1068"/>
<feComposite in2="hardAlpha" operator="arithmetic" k2="-1" k3="1"/>
<feColorMatrix type="matrix" values="0 0 0 0 0 0 0 0 0 0 0 0 0 0 0 0 0 0 0.3 0"/>
<feBlend mode="normal" in2="shape" result="effect1_innerShadow_759_7102"/>
<feColorMatrix in="SourceAlpha" type="matrix" values="0 0 0 0 0 0 0 0 0 0 0 0 0 0 0 0 0 0 127 0" result="hardAlpha"/>
<feOffset dy="2.17476"/>
<feGaussianBlur stdDeviation="4.97087"/>
<feComposite in2="hardAlpha" operator="arithmetic" k2="-1" k3="1"/>
<feColorMatrix type="matrix" values="0 0 0 0 1 0 0 0 0 1 0 0 0 0 1 0 0 0 0.15 0"/>
<feBlend mode="normal" in2="effect1_innerShadow_759_7102" result="effect2_innerShadow_759_7102"/>
</filter>
<filter id="filter1_dd_759_7102" x="31.2005" y="31.8004" width="71.7859" height="62.7805" filterUnits="userSpaceOnUse" color-interpolation-filters="sRGB">
<feFlood flood-opacity="0" result="BackgroundImageFix"/>
<feColorMatrix in="SourceAlpha" type="matrix" values="0 0 0 0 0 0 0 0 0 0 0 0 0 0 0 0 0 0 127 0" result="hardAlpha"/>
<feMorphology radius="1.39988" operator="dilate" in="SourceAlpha" result="effect1_dropShadow_759_7102"/>
<feOffset dy="1.39988"/>
<feGaussianBlur stdDeviation="2.09982"/>
<feColorMatrix type="matrix" values="0 0 0 0 0 0 0 0 0 0 0 0 0 0 0 0 0 0 0.15 0"/>
<feBlend mode="normal" in2="BackgroundImageFix" result="effect1_dropShadow_759_7102"/>
<feColorMatrix in="SourceAlpha" type="matrix" values="0 0 0 0 0 0 0 0 0 0 0 0 0 0 0 0 0 0 127 0" result="hardAlpha"/>
<feOffset dy="1.39988"/>
<feGaussianBlur stdDeviation="1.39988"/>
<feColorMatrix type="matrix" values="0 0 0 0 0 0 0 0 0 0 0 0 0 0 0 0 0 0 0.3 0"/>
<feBlend mode="normal" in2="effect1_dropShadow_759_7102" result="effect2_dropShadow_759_7102"/>
<feBlend mode="normal" in="SourceGraphic" in2="effect2_dropShadow_759_7102" result="shape"/>
</filter>
<linearGradient id="paint0_linear_759_7102" x1="67.0934" y1="36" x2="67.0934" y2="87.5815" gradientUnits="userSpaceOnUse">
<stop stop-color="#FF9C05"/>
<stop offset="1" stop-color="#B36C00"/>
</linearGradient>
<clipPath id="clip0_759_7102">
<rect width="128" height="128" fill="white" transform="translate(0.799988)"/>
</clipPath>
</defs>
</svg>
