<svg width="129" height="128" viewBox="0 0 129 128" fill="none" xmlns="http://www.w3.org/2000/svg">
<g clip-path="url(#clip0_759_7103)">
<mask id="mask0_759_7103" style="mask-type:luminance" maskUnits="userSpaceOnUse" x="0" y="0" width="129" height="128">
<path fill-rule="evenodd" clip-rule="evenodd" d="M128.6 39.8644C128.6 38.3449 128.601 36.8252 128.591 35.3055C128.584 34.0254 128.569 32.7455 128.534 31.466C128.459 28.6772 128.294 25.8645 127.798 23.1067C127.295 20.3092 126.474 17.7056 125.18 15.1638C123.907 12.6654 122.245 10.3793 120.261 8.39733C118.279 6.41536 115.992 4.75416 113.493 3.4824C110.948 2.18764 108.342 1.36652 105.541 0.863686C102.783 0.368465 99.9695 0.204271 97.1807 0.128932C95.9003 0.0942909 94.6198 0.079689 93.3391 0.0717667C91.8186 0.0624464 90.2981 0.0632231 88.7777 0.0632231L71.1238 0H57.92L40.5784 0.0632231C39.055 0.0632231 37.5316 0.0624464 36.0082 0.0717667C34.7248 0.079689 33.442 0.0942909 32.1591 0.128932C29.3638 0.204271 26.5439 0.36862 23.7793 0.864463C20.975 1.36714 18.3647 2.18795 15.8168 3.48177C13.3123 4.75369 11.0206 6.41504 9.0335 8.39733C7.04672 10.3791 5.38133 12.6648 4.10647 15.1627C2.80846 17.7057 1.98547 20.3109 1.48124 23.11C0.98478 25.8666 0.820276 28.6784 0.744626 31.466C0.710141 32.7457 0.695229 34.0255 0.687462 35.3055C0.678141 36.8253 0.600006 38.7132 0.600006 40.2329L0.600472 57.3342L0.600006 70.6794L0.678918 88.144C0.678918 89.6657 0.678297 91.1874 0.687462 92.7091C0.695229 93.991 0.710141 95.2725 0.744782 96.5539C0.820276 99.3463 0.985091 102.163 1.48202 104.925C1.98609 107.726 2.80892 110.333 4.10584 112.878C5.38086 115.38 7.04656 117.669 9.0335 119.654C11.0204 121.639 13.3115 123.302 15.8156 124.576C18.365 125.872 20.9766 126.694 23.7826 127.198C26.5459 127.694 29.3648 127.858 32.1591 127.934C33.442 127.968 34.725 127.983 36.0084 127.991C37.5318 128 39.055 128 40.5784 128L58.0767 128H71.3133L88.7777 127.999C90.2981 127.999 91.8186 128 93.3391 127.991C94.6198 127.983 95.9003 127.968 97.1807 127.934C99.9706 127.858 102.785 127.694 105.544 127.197C108.343 126.694 110.948 125.872 113.491 124.576C115.991 123.303 118.278 121.639 120.261 119.654C122.244 117.669 123.907 115.381 125.179 112.879C126.474 110.333 127.296 107.724 127.799 104.921C128.295 102.161 128.459 99.3452 128.534 96.5539C128.569 95.2724 128.584 93.9908 128.591 92.7091C128.601 91.1874 128.6 89.6657 128.6 88.144C128.6 88.144 128.599 70.9877 128.599 70.6794V57.3202C128.599 57.0925 128.6 39.8644 128.6 39.8644Z" fill="white"/>
</mask>
<g mask="url(#mask0_759_7103)">
<rect x="-8.40976" y="-9.63104" width="141.981" height="141.981" fill="#2E0315"/>
<g filter="url(#filter0_ii_759_7103)">
<path fill-rule="evenodd" clip-rule="evenodd" d="M128.6 39.8644C128.6 38.3449 128.601 36.8252 128.591 35.3055C128.584 34.0254 128.569 32.7455 128.534 31.466C128.459 28.6772 128.294 25.8645 127.798 23.1067C127.295 20.3092 126.474 17.7056 125.18 15.1638C123.907 12.6654 122.245 10.3793 120.261 8.39733C118.279 6.41536 115.992 4.75416 113.493 3.4824C110.948 2.18764 108.342 1.36652 105.541 0.863686C102.783 0.368465 99.9695 0.204271 97.1807 0.128932C95.9003 0.0942909 94.6198 0.079689 93.3391 0.0717667C91.8186 0.0624464 90.2981 0.0632231 88.7777 0.0632231L71.1238 0H57.92L40.5784 0.0632231C39.055 0.0632231 37.5316 0.0624464 36.0082 0.0717667C34.7248 0.079689 33.442 0.0942909 32.1591 0.128932C29.3638 0.204271 26.5439 0.36862 23.7793 0.864463C20.975 1.36714 18.3647 2.18795 15.8168 3.48177C13.3123 4.75369 11.0206 6.41504 9.0335 8.39733C7.04672 10.3791 5.38133 12.6648 4.10647 15.1627C2.80846 17.7057 1.98547 20.3109 1.48124 23.11C0.98478 25.8666 0.820276 28.6784 0.744626 31.466C0.710141 32.7457 0.695229 34.0255 0.687462 35.3055C0.678141 36.8253 0.600006 38.7132 0.600006 40.2329L0.600472 57.3342L0.600006 70.6794L0.678918 88.144C0.678918 89.6657 0.678297 91.1874 0.687462 92.7091C0.695229 93.991 0.710141 95.2725 0.744782 96.5539C0.820276 99.3463 0.985091 102.163 1.48202 104.925C1.98609 107.726 2.80892 110.333 4.10584 112.878C5.38086 115.38 7.04656 117.669 9.0335 119.654C11.0204 121.639 13.3115 123.302 15.8156 124.576C18.365 125.872 20.9766 126.694 23.7826 127.198C26.5459 127.694 29.3648 127.858 32.1591 127.934C33.442 127.968 34.725 127.983 36.0084 127.991C37.5318 128 39.055 128 40.5784 128L58.0767 128H71.3133L88.7777 127.999C90.2981 127.999 91.8186 128 93.3391 127.991C94.6198 127.983 95.9003 127.968 97.1807 127.934C99.9706 127.858 102.785 127.694 105.544 127.197C108.343 126.694 110.948 125.872 113.491 124.576C115.991 123.303 118.278 121.639 120.261 119.654C122.244 117.669 123.907 115.381 125.179 112.879C126.474 110.333 127.296 107.724 127.799 104.921C128.295 102.161 128.459 99.3452 128.534 96.5539C128.569 95.2724 128.584 93.9908 128.591 92.7091C128.601 91.1874 128.6 89.6657 128.6 88.144C128.6 88.144 128.599 70.9877 128.599 70.6794V57.3202C128.599 57.0925 128.6 39.8644 128.6 39.8644Z" fill="url(#paint0_linear_759_7103)" fill-opacity="0.01"/>
</g>
<path d="M48.8385 42.5525V89.8426C48.8385 90.3477 48.609 90.5772 48.1958 90.5772H39.1969C38.7837 90.5772 38.6 90.3477 38.6 89.8426V42.5525C38.6 42.1393 38.8296 41.9557 39.2428 41.9557H48.1958C48.4712 41.9097 48.7467 42.0934 48.7926 42.4148C48.8385 42.4607 48.8385 42.5066 48.8385 42.5525Z" fill="url(#paint1_linear_759_7103)"/>
<path d="M75.3763 91.1282C71.9788 91.1741 68.5812 90.4854 65.5051 89.0621C62.6126 87.7306 60.2251 85.5268 58.5722 82.818C56.8735 80.0173 56.047 76.5279 56.047 72.3499C56.0011 68.9523 56.8735 65.6007 58.5722 62.6623C60.3169 59.6779 62.8421 57.1987 65.8724 55.5458C69.0863 53.7552 72.9429 52.8829 77.4883 52.8829C77.7179 52.8829 78.0392 52.8829 78.4525 52.9288C78.8657 52.9747 79.3248 52.9747 79.8758 53.0206V38.5122C79.8758 38.1908 80.0135 38.0071 80.3349 38.0071H89.6552C89.8847 37.9612 90.0684 38.1449 90.1143 38.3285V38.4204V82.1293C90.1143 82.9557 90.1602 83.874 90.2061 84.884C90.2979 85.8482 90.3439 86.7665 90.3898 87.547C90.3898 87.8684 90.252 88.1438 89.9306 88.2816C87.5432 89.2917 85.018 90.0263 82.4469 90.4854C80.1512 90.8986 77.7638 91.1282 75.3763 91.1282ZM79.8758 81.9456V61.744C79.4625 61.6522 79.0493 61.5604 78.6361 61.5145C78.1311 61.4685 77.626 61.4226 77.121 61.4226C75.3304 61.4226 73.5398 61.7899 71.9328 62.6164C70.3718 63.3969 69.0403 64.5447 68.0303 66.0139C67.0202 67.4831 66.5151 69.4574 66.5151 71.8448C66.4692 73.4518 66.7447 75.0587 67.2957 76.5738C67.7548 77.8135 68.4435 78.9154 69.3617 79.8336C70.2341 80.6601 71.2901 81.3028 72.4838 81.6701C73.7234 82.0834 75.009 82.267 76.2946 82.267C76.9833 82.267 77.626 82.2211 78.2229 82.1752C78.8198 82.2211 79.3707 82.1293 79.8758 81.9456Z" fill="url(#paint2_linear_759_7103)"/>
</g>
</g>
<defs>
<filter id="filter0_ii_759_7103" x="0.600006" y="-3.1068" width="128" height="133.282" filterUnits="userSpaceOnUse" color-interpolation-filters="sRGB">
<feFlood flood-opacity="0" result="BackgroundImageFix"/>
<feBlend mode="normal" in="SourceGraphic" in2="BackgroundImageFix" result="shape"/>
<feColorMatrix in="SourceAlpha" type="matrix" values="0 0 0 0 0 0 0 0 0 0 0 0 0 0 0 0 0 0 127 0" result="hardAlpha"/>
<feOffset dy="-3.1068"/>
<feGaussianBlur stdDeviation="3.1068"/>
<feComposite in2="hardAlpha" operator="arithmetic" k2="-1" k3="1"/>
<feColorMatrix type="matrix" values="0 0 0 0 0 0 0 0 0 0 0 0 0 0 0 0 0 0 0.3 0"/>
<feBlend mode="normal" in2="shape" result="effect1_innerShadow_759_7103"/>
<feColorMatrix in="SourceAlpha" type="matrix" values="0 0 0 0 0 0 0 0 0 0 0 0 0 0 0 0 0 0 127 0" result="hardAlpha"/>
<feOffset dy="2.17476"/>
<feGaussianBlur stdDeviation="4.97087"/>
<feComposite in2="hardAlpha" operator="arithmetic" k2="-1" k3="1"/>
<feColorMatrix type="matrix" values="0 0 0 0 1 0 0 0 0 1 0 0 0 0 1 0 0 0 0.15 0"/>
<feBlend mode="normal" in2="effect1_innerShadow_759_7103" result="effect2_innerShadow_759_7103"/>
</filter>
<linearGradient id="paint0_linear_759_7103" x1="-43.0723" y1="0" x2="-43.0723" y2="215.345" gradientUnits="userSpaceOnUse">
<stop stop-color="white"/>
<stop offset="0.489516" stop-color="#EFEFEF"/>
<stop offset="1" stop-color="#C0C0C0"/>
</linearGradient>
<linearGradient id="paint1_linear_759_7103" x1="43.7193" y1="41.9487" x2="43.7193" y2="90.5772" gradientUnits="userSpaceOnUse">
<stop stop-color="#FF4A77"/>
<stop offset="1" stop-color="#C52A51"/>
</linearGradient>
<linearGradient id="paint2_linear_759_7103" x1="73.2175" y1="38" x2="73.2175" y2="91.1303" gradientUnits="userSpaceOnUse">
<stop stop-color="#FF4A77"/>
<stop offset="1" stop-color="#C52A51"/>
</linearGradient>
<clipPath id="clip0_759_7103">
<rect width="128" height="128" fill="white" transform="translate(0.600006)"/>
</clipPath>
</defs>
</svg>
