<svg width="437" height="42" viewBox="0 0 437 42" fill="none" xmlns="http://www.w3.org/2000/svg">
<path d="M414.779 41.9564C401.384 41.9564 393.121 34.8684 393.121 20.9782C393.121 7.08799 401.384 0 414.779 0C428.174 0 436.438 7.08799 436.438 20.9782C436.438 34.8684 428.174 41.9564 414.779 41.9564ZM414.779 30.1811C417.426 30.1811 419.154 28.1233 419.154 21.0353C419.154 13.8902 417.426 11.8324 414.779 11.8324C412.133 11.8324 410.404 13.8902 410.404 21.0353C410.404 28.1233 412.133 30.1811 414.779 30.1811Z" fill="#F3F3F3"/>
<path d="M371.554 40.9848V0.971924H388.297V40.9848H371.554Z" fill="#F3F3F3"/>
<path d="M325.547 40.9848V0.971924H345.478C358.548 0.971924 366.812 7.37399 366.812 20.9784C366.812 34.5827 358.44 40.9848 345.478 40.9848H325.547ZM344.451 12.4613H342.345V29.6669H344.451C347.584 29.6669 349.636 27.952 349.636 21.0355C349.636 14.2333 347.584 12.4613 344.451 12.4613Z" fill="#F3F3F3"/>
<path d="M300.001 41.8994C286.93 41.8994 279.854 35.7831 279.854 24.5224V0.971924H296.652V25.8371C296.652 28.3522 298.002 29.7812 300.217 29.7812C302.485 29.7812 303.782 28.3522 303.782 25.8371V0.971924H320.309V24.5224C320.309 35.7831 313.234 41.8994 300.001 41.8994Z" fill="#F3F3F3"/>
<path d="M245.43 40.9848V11.9469H232.413V0.971924H275.299V11.9469H262.228V40.9848H245.43Z" fill="#F3F3F3"/>
<path d="M209.312 41.9564C197.322 41.9564 190.138 37.3835 188.572 28.4091H204.451C204.991 31.4387 206.504 32.7534 209.042 32.7534C211.203 32.7534 212.499 31.7817 212.499 30.467C212.499 28.5806 209.366 27.7232 205.316 26.6943C198.294 24.9223 188.518 22.6359 188.518 13.3186C188.518 5.71612 194.999 0 208.124 0C219.899 0 226.974 4.85871 228.757 13.7187H212.931C212.337 10.7463 210.987 9.43161 208.556 9.43161C206.45 9.43161 205.424 10.3462 205.424 11.4894C205.424 13.3186 208.394 14.2332 212.229 15.2621C219.305 17.0912 229.405 19.3205 229.405 28.6378C229.405 36.3546 222.005 41.9564 209.312 41.9564Z" fill="#F3F3F3"/>
<path d="M130.809 40.9848V0.971924H147.229L152.144 10.1177L157.113 19.6065L156.951 9.94624V0.971924H170.4V40.9848H154.034L149.065 31.839L144.15 22.3502L144.258 32.0105L144.312 40.9848H130.809Z" fill="#F3F3F3"/>
<path d="M85.8064 40.9848V0.971924H102.226L107.141 10.1177L112.11 19.6065L111.948 9.94624V0.971924H125.397V40.9848H109.031L104.062 31.839L99.1473 22.3502L99.2554 32.0105L99.3094 40.9848H85.8064Z" fill="#F3F3F3"/>
<path d="M44.8645 40.9848V0.971924H80.7824V11.4896H61.5542V16.0625H75.7593V25.7799H61.5542V30.9244H80.7824V40.9848H44.8645Z" fill="#F3F3F3"/>
<path d="M19.8224 41.8994C7.2916 41.8994 0 35.5545 0 26.0086V25.3226H16.1496V26.2944C16.1496 28.6951 17.3918 30.067 19.4983 30.067C21.5507 30.067 22.847 28.6951 22.847 26.1229V0.971924H39.6447V25.0368C39.6447 35.8975 32.8392 41.8994 19.8224 41.8994Z" fill="#F3F3F3"/>
</svg>
