<svg width="128" height="128" viewBox="0 0 128 128" fill="none" xmlns="http://www.w3.org/2000/svg">
<g clip-path="url(#clip0_759_7113)">
<mask id="mask0_759_7113" style="mask-type:luminance" maskUnits="userSpaceOnUse" x="0" y="0" width="128" height="128">
<path fill-rule="evenodd" clip-rule="evenodd" d="M128 39.8644C128 38.3449 128.001 36.8252 127.991 35.3055C127.984 34.0254 127.969 32.7455 127.934 31.466C127.859 28.6772 127.694 25.8645 127.198 23.1067C126.695 20.3092 125.874 17.7056 124.58 15.1638C123.307 12.6654 121.645 10.3793 119.661 8.39733C117.679 6.41536 115.392 4.75416 112.893 3.4824C110.348 2.18764 107.742 1.36652 104.941 0.863686C102.183 0.368465 99.3695 0.204271 96.5807 0.128932C95.3003 0.0942909 94.0198 0.079689 92.739 0.0717667C91.2186 0.0624464 89.6981 0.0632231 88.1777 0.0632231L70.5238 0H57.32L39.9784 0.0632231C38.455 0.0632231 36.9316 0.0624464 35.4082 0.0717667C34.1248 0.079689 32.842 0.0942909 31.5591 0.128932C28.7637 0.204271 25.9439 0.36862 23.1793 0.864463C20.375 1.36714 17.7647 2.18795 15.2168 3.48177C12.7123 4.75369 10.4206 6.41504 8.43349 8.39733C6.44671 10.3791 4.78132 12.6648 3.50646 15.1627C2.20845 17.7057 1.38547 20.3109 0.881236 23.11C0.384774 25.8666 0.22027 28.6784 0.14462 31.466C0.110135 32.7457 0.0952226 34.0255 0.0874557 35.3055C0.0781353 36.8253 0 38.7132 0 40.2329L0.000466016 57.3342L0 70.6794L0.078912 88.144C0.078912 89.6657 0.0782907 91.1874 0.0874557 92.7091C0.0952226 93.991 0.110135 95.2725 0.144776 96.5539C0.22027 99.3463 0.385085 102.163 0.882013 104.925C1.38609 107.726 2.20892 110.333 3.50584 112.878C4.78086 115.38 6.44655 117.669 8.43349 119.654C10.4204 121.639 12.7115 123.302 15.2156 124.576C17.765 125.872 20.3765 126.694 23.1826 127.198C25.9459 127.694 28.7648 127.858 31.5591 127.934C32.842 127.968 34.125 127.983 35.4084 127.991C36.9318 128 38.455 128 39.9784 128L57.4767 128H70.7133L88.1777 127.999C89.6981 127.999 91.2186 128 92.739 127.991C94.0198 127.983 95.3003 127.968 96.5807 127.934C99.3706 127.858 102.185 127.694 104.944 127.197C107.743 126.694 110.348 125.872 112.891 124.576C115.391 123.303 117.678 121.639 119.661 119.654C121.644 117.669 123.307 115.381 124.579 112.879C125.874 110.333 126.696 107.724 127.199 104.921C127.695 102.161 127.859 99.3452 127.934 96.5539C127.969 95.2724 127.984 93.9908 127.991 92.7091C128.001 91.1874 128 89.6657 128 88.144C128 88.144 127.999 70.9877 127.999 70.6794V57.3202C127.999 57.0925 128 39.8644 128 39.8644Z" fill="white"/>
</mask>
<g mask="url(#mask0_759_7113)">
<rect x="-9.00977" y="-9.6311" width="141.981" height="141.981" fill="#101010"/>
<g filter="url(#filter0_ii_759_7113)">
<path fill-rule="evenodd" clip-rule="evenodd" d="M128 39.8644C128 38.3449 128.001 36.8252 127.991 35.3055C127.984 34.0254 127.969 32.7455 127.934 31.466C127.859 28.6772 127.694 25.8645 127.198 23.1067C126.695 20.3092 125.874 17.7056 124.58 15.1638C123.307 12.6654 121.645 10.3793 119.661 8.39733C117.679 6.41536 115.392 4.75416 112.893 3.4824C110.348 2.18764 107.742 1.36652 104.941 0.863686C102.183 0.368465 99.3695 0.204271 96.5807 0.128932C95.3003 0.0942909 94.0198 0.079689 92.739 0.0717667C91.2186 0.0624464 89.6981 0.0632231 88.1777 0.0632231L70.5238 0H57.32L39.9784 0.0632231C38.455 0.0632231 36.9316 0.0624464 35.4082 0.0717667C34.1248 0.079689 32.842 0.0942909 31.5591 0.128932C28.7637 0.204271 25.9439 0.36862 23.1793 0.864463C20.375 1.36714 17.7647 2.18795 15.2168 3.48177C12.7123 4.75369 10.4206 6.41504 8.43349 8.39733C6.44671 10.3791 4.78132 12.6648 3.50646 15.1627C2.20845 17.7057 1.38547 20.3109 0.881236 23.11C0.384774 25.8666 0.22027 28.6784 0.14462 31.466C0.110135 32.7457 0.0952226 34.0255 0.0874557 35.3055C0.0781353 36.8253 0 38.7132 0 40.2329L0.000466016 57.3342L0 70.6794L0.078912 88.144C0.078912 89.6657 0.0782907 91.1874 0.0874557 92.7091C0.0952226 93.991 0.110135 95.2725 0.144776 96.5539C0.22027 99.3463 0.385085 102.163 0.882013 104.925C1.38609 107.726 2.20892 110.333 3.50584 112.878C4.78086 115.38 6.44655 117.669 8.43349 119.654C10.4204 121.639 12.7115 123.302 15.2156 124.576C17.765 125.872 20.3765 126.694 23.1826 127.198C25.9459 127.694 28.7648 127.858 31.5591 127.934C32.842 127.968 34.125 127.983 35.4084 127.991C36.9318 128 38.455 128 39.9784 128L57.4767 128H70.7133L88.1777 127.999C89.6981 127.999 91.2186 128 92.739 127.991C94.0198 127.983 95.3003 127.968 96.5807 127.934C99.3706 127.858 102.185 127.694 104.944 127.197C107.743 126.694 110.348 125.872 112.891 124.576C115.391 123.303 117.678 121.639 119.661 119.654C121.644 117.669 123.307 115.381 124.579 112.879C125.874 110.333 126.696 107.724 127.199 104.921C127.695 102.161 127.859 99.3452 127.934 96.5539C127.969 95.2724 127.984 93.9908 127.991 92.7091C128.001 91.1874 128 89.6657 128 88.144C128 88.144 127.999 70.9877 127.999 70.6794V57.3202C127.999 57.0925 128 39.8644 128 39.8644Z" fill="url(#paint0_linear_759_7113)" fill-opacity="0.01"/>
</g>
<path d="M35 33H65.4762V63.4762H35V33Z" fill="url(#paint1_linear_759_7113)"/>
<path d="M68.5239 33H99.0001V63.4762H68.5239V33Z" fill="url(#paint2_linear_759_7113)"/>
<path d="M35 66.5238H65.4762V97H35V66.5238Z" fill="url(#paint3_linear_759_7113)"/>
<path d="M68.5239 66.5238H99.0001V97H68.5239V66.5238Z" fill="url(#paint4_linear_759_7113)"/>
</g>
</g>
<defs>
<filter id="filter0_ii_759_7113" x="0" y="-3.1068" width="128" height="133.282" filterUnits="userSpaceOnUse" color-interpolation-filters="sRGB">
<feFlood flood-opacity="0" result="BackgroundImageFix"/>
<feBlend mode="normal" in="SourceGraphic" in2="BackgroundImageFix" result="shape"/>
<feColorMatrix in="SourceAlpha" type="matrix" values="0 0 0 0 0 0 0 0 0 0 0 0 0 0 0 0 0 0 127 0" result="hardAlpha"/>
<feOffset dy="-3.1068"/>
<feGaussianBlur stdDeviation="3.1068"/>
<feComposite in2="hardAlpha" operator="arithmetic" k2="-1" k3="1"/>
<feColorMatrix type="matrix" values="0 0 0 0 0 0 0 0 0 0 0 0 0 0 0 0 0 0 0.3 0"/>
<feBlend mode="normal" in2="shape" result="effect1_innerShadow_759_7113"/>
<feColorMatrix in="SourceAlpha" type="matrix" values="0 0 0 0 0 0 0 0 0 0 0 0 0 0 0 0 0 0 127 0" result="hardAlpha"/>
<feOffset dy="2.17476"/>
<feGaussianBlur stdDeviation="4.97087"/>
<feComposite in2="hardAlpha" operator="arithmetic" k2="-1" k3="1"/>
<feColorMatrix type="matrix" values="0 0 0 0 1 0 0 0 0 1 0 0 0 0 1 0 0 0 0.15 0"/>
<feBlend mode="normal" in2="effect1_innerShadow_759_7113" result="effect2_innerShadow_759_7113"/>
</filter>
<linearGradient id="paint0_linear_759_7113" x1="-43.6723" y1="0" x2="-43.6723" y2="215.345" gradientUnits="userSpaceOnUse">
<stop stop-color="white"/>
<stop offset="0.489516" stop-color="#EFEFEF"/>
<stop offset="1" stop-color="#C0C0C0"/>
</linearGradient>
<linearGradient id="paint1_linear_759_7113" x1="50.2381" y1="33" x2="50" y2="64" gradientUnits="userSpaceOnUse">
<stop stop-color="#F35325"/>
<stop offset="1" stop-color="#D23001"/>
</linearGradient>
<linearGradient id="paint2_linear_759_7113" x1="83.762" y1="33" x2="83.762" y2="63.4762" gradientUnits="userSpaceOnUse">
<stop stop-color="#81BC06"/>
<stop offset="1" stop-color="#608E00"/>
</linearGradient>
<linearGradient id="paint3_linear_759_7113" x1="50.2381" y1="66.5238" x2="50.2381" y2="97" gradientUnits="userSpaceOnUse">
<stop stop-color="#05A6F0"/>
<stop offset="1" stop-color="#007AB1"/>
</linearGradient>
<linearGradient id="paint4_linear_759_7113" x1="83.762" y1="66.5238" x2="83.762" y2="97" gradientUnits="userSpaceOnUse">
<stop stop-color="#FFBA08"/>
<stop offset="1" stop-color="#DC9100"/>
</linearGradient>
<clipPath id="clip0_759_7113">
<rect width="128" height="128" fill="white"/>
</clipPath>
</defs>
</svg>
