<svg width="129" height="128" viewBox="0 0 129 128" fill="none" xmlns="http://www.w3.org/2000/svg">
<g clip-path="url(#clip0_759_7109)">
<mask id="mask0_759_7109" style="mask-type:luminance" maskUnits="userSpaceOnUse" x="0" y="0" width="129" height="128">
<path fill-rule="evenodd" clip-rule="evenodd" d="M128.8 39.8644C128.8 38.3449 128.801 36.8252 128.791 35.3055C128.784 34.0254 128.769 32.7455 128.734 31.466C128.659 28.6772 128.494 25.8645 127.998 23.1067C127.495 20.3092 126.674 17.7056 125.38 15.1638C124.107 12.6654 122.445 10.3793 120.461 8.39733C118.479 6.41536 116.192 4.75416 113.693 3.4824C111.148 2.18764 108.542 1.36652 105.741 0.863686C102.983 0.368465 100.17 0.204271 97.3807 0.128932C96.1003 0.0942909 94.8198 0.079689 93.539 0.0717667C92.0186 0.0624464 90.4981 0.0632231 88.9777 0.0632231L71.3237 0H58.12L40.7784 0.0632231C39.255 0.0632231 37.7316 0.0624464 36.2082 0.0717667C34.9248 0.079689 33.642 0.0942909 32.3591 0.128932C29.5637 0.204271 26.7439 0.36862 23.9793 0.864463C21.175 1.36714 18.5647 2.18795 16.0168 3.48177C13.5123 4.75369 11.2206 6.41504 9.23348 8.39733C7.2467 10.3791 5.58131 12.6648 4.30645 15.1627C3.00844 17.7057 2.18545 20.3109 1.68122 23.11C1.18476 25.8666 1.02026 28.6784 0.944608 31.466C0.910123 32.7457 0.89521 34.0255 0.887443 35.3055C0.878123 36.8253 0.799988 38.7132 0.799988 40.2329L0.800454 57.3342L0.799988 70.6794L0.8789 88.144C0.8789 89.6657 0.878278 91.1874 0.887443 92.7091C0.89521 93.991 0.910123 95.2725 0.944763 96.5539C1.02026 99.3463 1.18507 102.163 1.682 104.925C2.18607 107.726 3.0089 110.333 4.30583 112.878C5.58085 115.38 7.24654 117.669 9.23348 119.654C11.2204 121.639 13.5115 123.302 16.0156 124.576C18.565 125.872 21.1765 126.694 23.9826 127.198C26.7459 127.694 29.5648 127.858 32.3591 127.934C33.642 127.968 34.9249 127.983 36.2083 127.991C37.7318 128 39.255 128 40.7784 128L58.2767 128H71.5133L88.9777 127.999C90.4981 127.999 92.0186 128 93.539 127.991C94.8198 127.983 96.1003 127.968 97.3807 127.934C100.171 127.858 102.985 127.694 105.744 127.197C108.543 126.694 111.148 125.872 113.691 124.576C116.191 123.303 118.478 121.639 120.461 119.654C122.444 117.669 124.107 115.381 125.379 112.879C126.674 110.333 127.496 107.724 127.999 104.921C128.495 102.161 128.659 99.3452 128.734 96.5539C128.769 95.2724 128.784 93.9908 128.791 92.7091C128.801 91.1874 128.8 89.6657 128.8 88.144C128.8 88.144 128.799 70.9877 128.799 70.6794V57.3202C128.799 57.0925 128.8 39.8644 128.8 39.8644Z" fill="white"/>
</mask>
<g mask="url(#mask0_759_7109)">
<rect x="-8.20978" y="-9.6311" width="141.981" height="141.981" fill="#101010"/>
<g filter="url(#filter0_ii_759_7109)">
<path fill-rule="evenodd" clip-rule="evenodd" d="M128.8 39.8644C128.8 38.3449 128.801 36.8252 128.791 35.3055C128.784 34.0254 128.769 32.7455 128.734 31.466C128.659 28.6772 128.494 25.8645 127.998 23.1067C127.495 20.3092 126.674 17.7056 125.38 15.1638C124.107 12.6654 122.445 10.3793 120.461 8.39733C118.479 6.41536 116.192 4.75416 113.693 3.4824C111.148 2.18764 108.542 1.36652 105.741 0.863686C102.983 0.368465 100.17 0.204271 97.3807 0.128932C96.1003 0.0942909 94.8198 0.079689 93.539 0.0717667C92.0186 0.0624464 90.4981 0.0632231 88.9777 0.0632231L71.3237 0H58.12L40.7784 0.0632231C39.255 0.0632231 37.7316 0.0624464 36.2082 0.0717667C34.9248 0.079689 33.642 0.0942909 32.3591 0.128932C29.5637 0.204271 26.7439 0.36862 23.9793 0.864463C21.175 1.36714 18.5647 2.18795 16.0168 3.48177C13.5123 4.75369 11.2206 6.41504 9.23348 8.39733C7.2467 10.3791 5.58131 12.6648 4.30645 15.1627C3.00844 17.7057 2.18545 20.3109 1.68122 23.11C1.18476 25.8666 1.02026 28.6784 0.944608 31.466C0.910123 32.7457 0.89521 34.0255 0.887443 35.3055C0.878123 36.8253 0.799988 38.7132 0.799988 40.2329L0.800454 57.3342L0.799988 70.6794L0.8789 88.144C0.8789 89.6657 0.878278 91.1874 0.887443 92.7091C0.89521 93.991 0.910123 95.2725 0.944763 96.5539C1.02026 99.3463 1.18507 102.163 1.682 104.925C2.18607 107.726 3.0089 110.333 4.30583 112.878C5.58085 115.38 7.24654 117.669 9.23348 119.654C11.2204 121.639 13.5115 123.302 16.0156 124.576C18.565 125.872 21.1765 126.694 23.9826 127.198C26.7459 127.694 29.5648 127.858 32.3591 127.934C33.642 127.968 34.9249 127.983 36.2083 127.991C37.7318 128 39.255 128 40.7784 128L58.2767 128H71.5133L88.9777 127.999C90.4981 127.999 92.0186 128 93.539 127.991C94.8198 127.983 96.1003 127.968 97.3807 127.934C100.171 127.858 102.985 127.694 105.744 127.197C108.543 126.694 111.148 125.872 113.691 124.576C116.191 123.303 118.478 121.639 120.461 119.654C122.444 117.669 124.107 115.381 125.379 112.879C126.674 110.333 127.496 107.724 127.999 104.921C128.495 102.161 128.659 99.3452 128.734 96.5539C128.769 95.2724 128.784 93.9908 128.791 92.7091C128.801 91.1874 128.8 89.6657 128.8 88.144C128.8 88.144 128.799 70.9877 128.799 70.6794V57.3202C128.799 57.0925 128.8 39.8644 128.8 39.8644Z" fill="url(#paint0_linear_759_7109)" fill-opacity="0.01"/>
</g>
<g filter="url(#filter1_dd_759_7109)">
<path fill-rule="evenodd" clip-rule="evenodd" d="M45.3247 39.9717C47.5322 41.7565 48.3306 41.6156 52.4638 41.3337L91.4005 38.9853C92.2459 38.9853 91.5414 38.1399 91.2596 38.046L84.778 33.3961C83.5568 32.4568 81.8659 31.3295 78.7191 31.6113L41.0506 34.3825C39.6885 34.5234 39.4067 35.2279 39.9703 35.7445L45.3247 39.9717ZM47.6731 49.0365V89.9928C47.6731 92.2003 48.7533 92.9988 51.2427 92.8579L94.0307 90.3686C96.52 90.2276 96.8018 88.7247 96.8018 86.9399V46.2654C96.8018 44.4806 96.0973 43.4943 94.5943 43.6352L49.8806 46.2654C48.2367 46.4063 47.6731 47.2517 47.6731 49.0365ZM89.8975 51.244C90.1793 52.4652 89.8975 53.7334 88.6763 53.8743L86.6097 54.297V84.5445C84.8249 85.4839 83.181 86.0475 81.772 86.0475C79.5645 86.0475 79.0009 85.343 77.357 83.2764L63.8771 62.0937V82.5718L68.1512 83.5112C68.1512 83.5112 68.1512 86.0005 64.7225 86.0005L55.235 86.5641C54.9531 86.0005 55.235 84.6384 56.1743 84.3566L58.6636 83.6521V56.5984L55.235 56.3166C54.9531 55.0954 55.6577 53.3106 57.5834 53.1697L67.7755 52.4652L81.819 73.8827V54.9545L78.2494 54.5318C77.9676 53.0288 79.0948 51.9016 80.4569 51.7607L89.8975 51.244ZM37.9037 30.625L77.1221 27.7599C81.9129 27.3372 83.181 27.619 86.187 29.8265L98.6805 38.6096C100.747 40.1126 101.452 40.5353 101.452 42.1792V90.4155C101.452 93.4215 100.371 95.2063 96.52 95.4881L51.0078 98.2592C48.0958 98.4001 46.7337 97.9774 45.2307 96.0517L35.978 84.0748C34.3341 81.8673 33.6296 80.2234 33.6296 78.2977V35.4158C33.6296 32.9264 34.7568 30.9068 37.9037 30.625Z" fill="url(#paint1_linear_759_7109)"/>
</g>
</g>
</g>
<defs>
<filter id="filter0_ii_759_7109" x="0.799988" y="-3.1068" width="128" height="133.282" filterUnits="userSpaceOnUse" color-interpolation-filters="sRGB">
<feFlood flood-opacity="0" result="BackgroundImageFix"/>
<feBlend mode="normal" in="SourceGraphic" in2="BackgroundImageFix" result="shape"/>
<feColorMatrix in="SourceAlpha" type="matrix" values="0 0 0 0 0 0 0 0 0 0 0 0 0 0 0 0 0 0 127 0" result="hardAlpha"/>
<feOffset dy="-3.1068"/>
<feGaussianBlur stdDeviation="3.1068"/>
<feComposite in2="hardAlpha" operator="arithmetic" k2="-1" k3="1"/>
<feColorMatrix type="matrix" values="0 0 0 0 0 0 0 0 0 0 0 0 0 0 0 0 0 0 0.3 0"/>
<feBlend mode="normal" in2="shape" result="effect1_innerShadow_759_7109"/>
<feColorMatrix in="SourceAlpha" type="matrix" values="0 0 0 0 0 0 0 0 0 0 0 0 0 0 0 0 0 0 127 0" result="hardAlpha"/>
<feOffset dy="2.17476"/>
<feGaussianBlur stdDeviation="4.97087"/>
<feComposite in2="hardAlpha" operator="arithmetic" k2="-1" k3="1"/>
<feColorMatrix type="matrix" values="0 0 0 0 1 0 0 0 0 1 0 0 0 0 1 0 0 0 0.15 0"/>
<feBlend mode="normal" in2="effect1_innerShadow_759_7109" result="effect2_innerShadow_759_7109"/>
</filter>
<filter id="filter1_dd_759_7109" x="16.1271" y="14.4672" width="102.827" height="105.695" filterUnits="userSpaceOnUse" color-interpolation-filters="sRGB">
<feFlood flood-opacity="0" result="BackgroundImageFix"/>
<feColorMatrix in="SourceAlpha" type="matrix" values="0 0 0 0 0 0 0 0 0 0 0 0 0 0 0 0 0 0 127 0" result="hardAlpha"/>
<feMorphology radius="4.37562" operator="dilate" in="SourceAlpha" result="effect1_dropShadow_759_7109"/>
<feOffset dy="4.37562"/>
<feGaussianBlur stdDeviation="6.56343"/>
<feColorMatrix type="matrix" values="0 0 0 0 0 0 0 0 0 0 0 0 0 0 0 0 0 0 0.15 0"/>
<feBlend mode="normal" in2="BackgroundImageFix" result="effect1_dropShadow_759_7109"/>
<feColorMatrix in="SourceAlpha" type="matrix" values="0 0 0 0 0 0 0 0 0 0 0 0 0 0 0 0 0 0 127 0" result="hardAlpha"/>
<feOffset dy="2.18781"/>
<feGaussianBlur stdDeviation="2.18781"/>
<feColorMatrix type="matrix" values="0 0 0 0 0 0 0 0 0 0 0 0 0 0 0 0 0 0 0.3 0"/>
<feBlend mode="normal" in2="effect1_dropShadow_759_7109" result="effect2_dropShadow_759_7109"/>
<feBlend mode="normal" in="SourceGraphic" in2="effect2_dropShadow_759_7109" result="shape"/>
</filter>
<linearGradient id="paint0_linear_759_7109" x1="-42.8723" y1="0" x2="-42.8723" y2="215.345" gradientUnits="userSpaceOnUse">
<stop stop-color="white"/>
<stop offset="0.489516" stop-color="#EFEFEF"/>
<stop offset="1" stop-color="#C0C0C0"/>
</linearGradient>
<linearGradient id="paint1_linear_759_7109" x1="67.5406" y1="27.5941" x2="67.5406" y2="98.284" gradientUnits="userSpaceOnUse">
<stop stop-color="white"/>
<stop offset="1" stop-color="#4E4E4E"/>
</linearGradient>
<clipPath id="clip0_759_7109">
<rect width="128" height="128" fill="white" transform="translate(0.799988)"/>
</clipPath>
</defs>
</svg>
