<svg width="67" height="72" viewBox="0 0 67 72" fill="none" xmlns="http://www.w3.org/2000/svg">
<g clip-path="url(#clip0_643_4777)">
<path d="M66.9861 33.2329C66.9861 32.7323 66.8708 32.1879 66.6562 31.7357C63.2213 24.5175 59.7656 17.3108 56.2891 10.1111C56.1345 9.78809 55.8023 9.46743 55.4748 9.3244C48.3788 6.22396 41.2736 3.14428 34.1592 0.0876614C34.0208 0.0276826 33.8501 0 33.6771 0C33.5041 0 33.331 0.0276826 33.1949 0.0876614C26.0805 3.14658 18.9753 6.22627 11.8794 9.32671C11.5518 9.46974 11.2196 9.79039 11.065 10.1134C7.59089 17.3131 4.13518 24.5198 0.697931 31.738C0.483391 32.1879 0.370354 32.7323 0.368047 33.2352C0.349592 45.8954 0.351899 72 0.351899 72H33.6771H67.0023C67.0023 72 67.0046 45.8954 66.9861 33.2352V33.2329Z" fill="#F3F3F3"/>
<path d="M11.8104 52.7492H17.9467V51.2866H8.95679V63.7691H11.8104V58.1519H16.3942V56.6893H11.8104V52.7492Z" fill="#181818"/>
<path d="M22.7541 51.252L17.1899 63.7714H18.8486L20.205 60.6686H25.091L26.5005 63.7714H29.4602L23.8245 51.252H22.7541ZM20.7564 59.3652L22.5927 55.1575L24.5004 59.3652H20.7564Z" fill="#181818"/>
<path d="M14.0134 46.9775C17.6329 46.9775 20.5234 44.267 20.5234 40.5575C20.5234 36.848 17.6352 34.1375 14.0134 34.1375C10.3939 34.1375 7.50342 36.848 7.50342 40.5575C7.50342 44.267 10.3916 46.9775 14.0134 46.9775ZM14.0134 35.4224C16.2788 35.4224 17.3307 37.2956 17.3307 40.5575C17.3307 43.8217 16.2788 45.6926 14.0134 45.6926C11.7481 45.6926 10.6961 43.8194 10.6961 40.5575C10.6961 37.2933 11.7481 35.4224 14.0134 35.4224Z" fill="#181818"/>
<path d="M25.7762 42.1628H28.2377C31.1443 42.1628 33.232 40.8433 33.232 38.2388C33.232 35.6344 31.1443 34.3148 28.2377 34.3148H22.9226V46.7973H25.7762V42.1605V42.1628ZM25.7762 35.7082H27.2572C29.398 35.7082 30.2885 36.4579 30.2885 38.2411C30.2885 40.0059 29.398 40.7741 27.2572 40.7741H25.7762V35.7105V35.7082Z" fill="#181818"/>
<path d="M38.3763 41.0763H42.9601V39.6137H38.3763V35.7797H44.7248V34.3171H35.5227V46.7997H45.0455V45.3371H38.3763V41.0763Z" fill="#181818"/>
<path d="M57.0645 34.3171V41.8606L50.769 34.3171H48.0054V46.7997H49.7355V37.383L57.6527 46.8181H58.7762V34.3171H57.0645Z" fill="#181818"/>
<path d="M40.967 60.0433C40.4503 58.5992 39.486 57.9394 37.9358 57.8149V57.7803C39.952 57.7272 41.8413 56.7629 41.8413 54.659C41.8413 52.2345 39.6844 51.2887 37.1145 51.2887H31.3542V63.7712H34.2079V58.44H35.8296C37.0776 58.44 37.5782 58.8322 37.9704 59.9556L38.6671 61.9165C38.9 62.5578 39.1307 63.1461 39.5045 63.7712H42.7133C42.1251 62.9869 41.8759 62.5047 41.5553 61.6673L40.967 60.0433ZM36.0995 57.0467H34.2102V52.6774H36.0995C37.8827 52.6774 38.8447 53.4272 38.8447 54.8344C38.8447 56.3684 37.8458 57.0467 36.0995 57.0467Z" fill="#181818"/>
<path d="M52.1069 59.4714L48.8611 51.2866H45.2231V63.7691H46.9533V53.7665L50.9488 63.7876H51.9292L55.994 53.7665V63.7691H58.7761V51.2866H55.4588L52.1069 59.4714Z" fill="#181818"/>
<path d="M61.5305 53.2545L61.2375 52.7469H60.9676V53.2545H60.7393V51.8634H61.2952C61.4198 51.8634 61.5259 51.9072 61.6113 51.9949C61.6989 52.0802 61.7428 52.1864 61.7428 52.3109C61.7428 52.4886 61.632 52.6477 61.4659 52.7146L61.782 53.2545H61.5328H61.5305ZM60.9653 52.0779V52.5416H61.2929C61.4152 52.5416 61.5121 52.4378 61.5121 52.3086C61.5121 52.1794 61.4152 52.0756 61.2929 52.0756H60.9653V52.0779Z" fill="white"/>
<path d="M61.1913 51.4548C61.6734 51.4548 62.1025 51.7593 62.2617 52.2137C62.3609 52.4998 62.3447 52.8066 62.2132 53.0811C62.0818 53.3533 61.8511 53.5587 61.565 53.6602C61.4427 53.7017 61.3182 53.7248 61.189 53.7248C60.7069 53.7248 60.2778 53.4202 60.1186 52.9658C59.911 52.3752 60.2247 51.727 60.8153 51.5194C60.9375 51.4779 61.0621 51.4548 61.1913 51.4548ZM61.1913 51.2426C61.0437 51.2426 60.8937 51.2679 60.7461 51.3187C60.0448 51.5632 59.6757 52.3314 59.9202 53.035C60.114 53.5886 60.6353 53.937 61.1913 53.937C61.3389 53.937 61.4889 53.9116 61.6365 53.8609C62.3378 53.6163 62.7069 52.8481 62.4624 52.1445C62.2686 51.5909 61.7473 51.2426 61.1913 51.2426Z" fill="white"/>
</g>
<defs>
<clipPath id="clip0_643_4777">
<rect width="66.6504" height="72" fill="white" transform="translate(0.352051)"/>
</clipPath>
</defs>
</svg>
