<svg width="129" height="128" viewBox="0 0 129 128" fill="none" xmlns="http://www.w3.org/2000/svg">
<g clip-path="url(#clip0_759_7105)">
<mask id="mask0_759_7105" style="mask-type:luminance" maskUnits="userSpaceOnUse" x="0" y="0" width="129" height="128">
<path fill-rule="evenodd" clip-rule="evenodd" d="M128.2 39.8644C128.2 38.3449 128.201 36.8252 128.191 35.3055C128.184 34.0254 128.169 32.7455 128.134 31.466C128.059 28.6772 127.894 25.8645 127.398 23.1067C126.895 20.3092 126.074 17.7056 124.78 15.1638C123.507 12.6654 121.845 10.3793 119.861 8.39733C117.879 6.41536 115.592 4.75416 113.093 3.4824C110.548 2.18764 107.942 1.36652 105.141 0.863686C102.383 0.368465 99.5695 0.204271 96.7807 0.128932C95.5003 0.0942909 94.2198 0.079689 92.9391 0.0717667C91.4186 0.0624464 89.8981 0.0632231 88.3777 0.0632231L70.7238 0H57.52L40.1784 0.0632231C38.655 0.0632231 37.1316 0.0624464 35.6082 0.0717667C34.3248 0.079689 33.042 0.0942909 31.7591 0.128932C28.9638 0.204271 26.1439 0.36862 23.3793 0.864463C20.575 1.36714 17.9647 2.18795 15.4168 3.48177C12.9123 4.75369 10.6206 6.41504 8.6335 8.39733C6.64672 10.3791 4.98134 12.6648 3.70647 15.1627C2.40846 17.7057 1.58548 20.3109 1.08125 23.11C0.584786 25.8666 0.420282 28.6784 0.344632 31.466C0.310147 32.7457 0.295235 34.0255 0.287468 35.3055C0.278148 36.8253 0.200012 38.7132 0.200012 40.2329L0.200478 57.3342L0.200012 70.6794L0.278924 88.144C0.278924 89.6657 0.278303 91.1874 0.287468 92.7091C0.295235 93.991 0.310147 95.2725 0.344788 96.5539C0.420282 99.3463 0.585097 102.163 1.08203 104.925C1.5861 107.726 2.40893 110.333 3.70585 112.878C4.98087 115.38 6.64657 117.669 8.6335 119.654C10.6204 121.639 12.9115 123.302 15.4156 124.576C17.965 125.872 20.5766 126.694 23.3826 127.198C26.1459 127.694 28.9648 127.858 31.7591 127.934C33.042 127.968 34.325 127.983 35.6084 127.991C37.1318 128 38.655 128 40.1784 128L57.6767 128H70.9133L88.3777 127.999C89.8981 127.999 91.4186 128 92.9391 127.991C94.2198 127.983 95.5003 127.968 96.7807 127.934C99.5706 127.858 102.385 127.694 105.144 127.197C107.943 126.694 110.548 125.872 113.091 124.576C115.591 123.303 117.878 121.639 119.861 119.654C121.844 117.669 123.507 115.381 124.779 112.879C126.074 110.333 126.896 107.724 127.399 104.921C127.895 102.161 128.059 99.3452 128.134 96.5539C128.169 95.2724 128.184 93.9908 128.191 92.7091C128.201 91.1874 128.2 89.6657 128.2 88.144C128.2 88.144 128.199 70.9877 128.199 70.6794V57.3202C128.199 57.0925 128.2 39.8644 128.2 39.8644Z" fill="white"/>
</mask>
<g mask="url(#mask0_759_7105)">
<rect x="-8.80975" y="-9.63104" width="141.981" height="141.981" fill="#042239"/>
<g filter="url(#filter0_ii_759_7105)">
<path fill-rule="evenodd" clip-rule="evenodd" d="M128.2 39.8644C128.2 38.3449 128.201 36.8252 128.191 35.3055C128.184 34.0254 128.169 32.7455 128.134 31.466C128.059 28.6772 127.894 25.8645 127.398 23.1067C126.895 20.3092 126.074 17.7056 124.78 15.1638C123.507 12.6654 121.845 10.3793 119.861 8.39733C117.879 6.41536 115.592 4.75416 113.093 3.4824C110.548 2.18764 107.942 1.36652 105.141 0.863686C102.383 0.368465 99.5695 0.204271 96.7807 0.128932C95.5003 0.0942909 94.2198 0.079689 92.9391 0.0717667C91.4186 0.0624464 89.8981 0.0632231 88.3777 0.0632231L70.7238 0H57.52L40.1784 0.0632231C38.655 0.0632231 37.1316 0.0624464 35.6082 0.0717667C34.3248 0.079689 33.042 0.0942909 31.7591 0.128932C28.9638 0.204271 26.1439 0.36862 23.3793 0.864463C20.575 1.36714 17.9647 2.18795 15.4168 3.48177C12.9123 4.75369 10.6206 6.41505 8.6335 8.39733C6.64672 10.3791 4.98134 12.6648 3.70647 15.1627C2.40846 17.7057 1.58548 20.3109 1.08125 23.11C0.584786 25.8666 0.420282 28.6784 0.344632 31.466C0.310147 32.7457 0.295235 34.0255 0.287468 35.3055C0.278148 36.8253 0.200012 38.7132 0.200012 40.2329L0.200478 57.3342L0.200012 70.6794L0.278924 88.144C0.278924 89.6657 0.278303 91.1874 0.287468 92.7091C0.295235 93.991 0.310147 95.2725 0.344788 96.5539C0.420282 99.3463 0.585097 102.163 1.08203 104.925C1.5861 107.726 2.40893 110.333 3.70585 112.878C4.98087 115.38 6.64657 117.669 8.6335 119.654C10.6204 121.639 12.9115 123.302 15.4156 124.576C17.965 125.872 20.5766 126.694 23.3826 127.198C26.1459 127.694 28.9648 127.858 31.7591 127.934C33.042 127.968 34.325 127.983 35.6084 127.991C37.1318 128 38.655 128 40.1784 128L57.6767 128H70.9133L88.3777 127.999C89.8981 127.999 91.4186 128 92.9391 127.991C94.2198 127.983 95.5003 127.968 96.7807 127.934C99.5706 127.858 102.385 127.694 105.144 127.197C107.943 126.694 110.548 125.872 113.091 124.576C115.591 123.303 117.878 121.639 119.861 119.654C121.844 117.669 123.507 115.381 124.779 112.879C126.074 110.333 126.896 107.724 127.399 104.921C127.895 102.161 128.059 99.3452 128.134 96.5539C128.169 95.2724 128.184 93.9908 128.191 92.7091C128.201 91.1874 128.2 89.6657 128.2 88.144C128.2 88.144 128.199 70.9877 128.199 70.6794V57.3202C128.199 57.0925 128.2 39.8644 128.2 39.8644Z" fill="url(#paint0_linear_759_7105)" fill-opacity="0.01"/>
</g>
</g>
<g clip-path="url(#clip1_759_7105)" filter="url(#filter1_dd_759_7105)">
<path d="M30.2 88.9099V38.8274C30.2 38.4867 30.346 38.292 30.6867 38.292C31.5141 38.292 32.2929 38.292 33.4123 38.2434C34.5804 38.1947 35.7972 38.1947 37.1113 38.146C38.4254 38.0973 39.8369 38.0973 41.3457 38.0487C42.8545 38 44.3146 38 45.7747 38C49.7657 38 53.0754 38.4867 55.801 39.5088C58.2345 40.3362 60.4734 41.699 62.3229 43.4998C63.8803 45.0573 65.0971 46.9555 65.8758 49.0483C66.6059 51.0925 66.9953 53.1853 66.9953 55.3755C66.9953 59.5612 66.0219 63.0169 64.075 65.7425C62.1282 68.468 59.4026 70.5122 56.239 71.6803C52.9294 72.8971 49.279 73.3351 45.288 73.3351C44.1199 73.3351 43.3412 73.3351 42.8545 73.2865C42.3678 73.2378 41.6864 73.2378 40.7616 73.2378V88.8612C40.8103 89.2019 40.5669 89.4939 40.2262 89.5426C40.1776 89.5426 40.1289 89.5426 40.0316 89.5426H30.7841C30.3947 89.5426 30.2 89.3479 30.2 88.9099ZM40.8103 47.6855V64.039C41.4917 64.0877 42.1244 64.1363 42.7085 64.1363H45.288C47.1862 64.1363 49.0844 63.8443 50.8852 63.2602C52.4427 62.8222 53.8054 61.8975 54.8762 60.6807C55.8983 59.4639 56.385 57.8091 56.385 55.6676C56.4337 54.1588 56.0443 52.65 55.2656 51.3359C54.4382 50.0704 53.2701 49.097 51.8586 48.5616C50.0578 47.8315 48.1109 47.5395 46.1154 47.5882C44.85 47.5882 43.7305 47.5882 42.8058 47.6369C41.8324 47.5882 41.151 47.6369 40.8103 47.6855Z" fill="url(#paint1_linear_759_7105)"/>
<path d="M97.3686 61.0697C95.9085 60.291 94.351 59.7556 92.6962 59.4149C90.8954 59.0255 89.0946 58.7822 87.2451 58.7822C86.2716 58.7335 85.2495 58.8795 84.3248 59.1229C83.6921 59.2689 83.1567 59.6096 82.816 60.0963C82.5726 60.4857 82.4266 60.9724 82.4266 61.4104C82.4266 61.8484 82.6213 62.2865 82.9133 62.6759C83.3514 63.2112 83.9354 63.6493 84.5682 63.99C85.6876 64.574 86.8557 65.1094 88.0238 65.5961C90.652 66.4722 93.1829 67.689 95.5191 69.1491C97.1253 70.1712 98.4394 71.534 99.3641 73.1888C100.143 74.7463 100.532 76.4497 100.484 78.2019C100.532 80.4894 99.8508 82.777 98.5854 84.6751C97.2226 86.622 95.3244 88.1308 93.1343 89.0069C90.7494 90.0289 87.8291 90.5643 84.3248 90.5643C82.0859 90.5643 79.8957 90.3696 77.7055 89.9316C76.0021 89.6396 74.2986 89.1042 72.7411 88.3741C72.4004 88.1795 72.1571 87.8388 72.2057 87.4494V78.9806C72.2057 78.8346 72.2544 78.6399 72.4004 78.5426C72.5464 78.4453 72.6924 78.4939 72.8384 78.5913C74.7366 79.7107 76.7321 80.4894 78.8736 80.9761C80.7231 81.4629 82.67 81.7062 84.6168 81.7062C86.4663 81.7062 87.7804 81.4629 88.6565 81.0248C89.4353 80.6841 89.9706 79.8567 89.9706 78.9806C89.9706 78.2992 89.5813 77.6665 88.8025 77.0338C88.0238 76.4011 86.4177 75.671 84.0328 74.7463C81.5506 73.8702 79.263 72.7021 77.1215 71.2419C75.6127 70.1712 74.3472 68.7597 73.4225 67.1049C72.6438 65.5474 72.2544 63.844 72.3031 62.1405C72.3031 60.0476 72.8871 58.0521 73.9579 56.2513C75.1747 54.3044 76.9755 52.747 79.0683 51.7736C81.3559 50.6054 84.2275 50.0701 87.6831 50.0701C89.6786 50.0701 91.7228 50.2161 93.7183 50.5081C95.1784 50.7028 96.5899 51.0922 97.904 51.6275C98.0987 51.6762 98.2934 51.8709 98.3907 52.0656C98.4394 52.2603 98.4881 52.4549 98.4881 52.6496V60.583C98.4881 60.7777 98.3907 60.9724 98.2447 61.0697C97.8067 61.1671 97.5633 61.1671 97.3686 61.0697Z" fill="url(#paint2_linear_759_7105)"/>
</g>
</g>
<defs>
<filter id="filter0_ii_759_7105" x="0.200012" y="-3.1068" width="128" height="133.282" filterUnits="userSpaceOnUse" color-interpolation-filters="sRGB">
<feFlood flood-opacity="0" result="BackgroundImageFix"/>
<feBlend mode="normal" in="SourceGraphic" in2="BackgroundImageFix" result="shape"/>
<feColorMatrix in="SourceAlpha" type="matrix" values="0 0 0 0 0 0 0 0 0 0 0 0 0 0 0 0 0 0 127 0" result="hardAlpha"/>
<feOffset dy="-3.1068"/>
<feGaussianBlur stdDeviation="3.1068"/>
<feComposite in2="hardAlpha" operator="arithmetic" k2="-1" k3="1"/>
<feColorMatrix type="matrix" values="0 0 0 0 0 0 0 0 0 0 0 0 0 0 0 0 0 0 0.3 0"/>
<feBlend mode="normal" in2="shape" result="effect1_innerShadow_759_7105"/>
<feColorMatrix in="SourceAlpha" type="matrix" values="0 0 0 0 0 0 0 0 0 0 0 0 0 0 0 0 0 0 127 0" result="hardAlpha"/>
<feOffset dy="2.17476"/>
<feGaussianBlur stdDeviation="4.97087"/>
<feComposite in2="hardAlpha" operator="arithmetic" k2="-1" k3="1"/>
<feColorMatrix type="matrix" values="0 0 0 0 1 0 0 0 0 1 0 0 0 0 1 0 0 0 0.15 0"/>
<feBlend mode="normal" in2="effect1_innerShadow_759_7105" result="effect2_innerShadow_759_7105"/>
</filter>
<filter id="filter1_dd_759_7105" x="15.403" y="26.9022" width="99.8817" height="82.1584" filterUnits="userSpaceOnUse" color-interpolation-filters="sRGB">
<feFlood flood-opacity="0" result="BackgroundImageFix"/>
<feColorMatrix in="SourceAlpha" type="matrix" values="0 0 0 0 0 0 0 0 0 0 0 0 0 0 0 0 0 0 127 0" result="hardAlpha"/>
<feMorphology radius="3.69925" operator="dilate" in="SourceAlpha" result="effect1_dropShadow_759_7105"/>
<feOffset dy="3.69925"/>
<feGaussianBlur stdDeviation="5.54888"/>
<feColorMatrix type="matrix" values="0 0 0 0 0 0 0 0 0 0 0 0 0 0 0 0 0 0 0.15 0"/>
<feBlend mode="normal" in2="BackgroundImageFix" result="effect1_dropShadow_759_7105"/>
<feColorMatrix in="SourceAlpha" type="matrix" values="0 0 0 0 0 0 0 0 0 0 0 0 0 0 0 0 0 0 127 0" result="hardAlpha"/>
<feOffset dy="1.84963"/>
<feGaussianBlur stdDeviation="1.84963"/>
<feColorMatrix type="matrix" values="0 0 0 0 0 0 0 0 0 0 0 0 0 0 0 0 0 0 0.3 0"/>
<feBlend mode="normal" in2="effect1_dropShadow_759_7105" result="effect2_dropShadow_759_7105"/>
<feBlend mode="normal" in="SourceGraphic" in2="effect2_dropShadow_759_7105" result="shape"/>
</filter>
<linearGradient id="paint0_linear_759_7105" x1="-43.4723" y1="0" x2="-43.4723" y2="215.345" gradientUnits="userSpaceOnUse">
<stop stop-color="white"/>
<stop offset="0.489516" stop-color="#EFEFEF"/>
<stop offset="1" stop-color="#C0C0C0"/>
</linearGradient>
<linearGradient id="paint1_linear_759_7105" x1="48.5976" y1="38" x2="48.5976" y2="89.5426" gradientUnits="userSpaceOnUse">
<stop stop-color="#6AC0FF"/>
<stop offset="1" stop-color="#0C65A6"/>
</linearGradient>
<linearGradient id="paint2_linear_759_7105" x1="86.3436" y1="50.0701" x2="86.3436" y2="90.5643" gradientUnits="userSpaceOnUse">
<stop stop-color="#6AC0FF"/>
<stop offset="1" stop-color="#0C65A6"/>
</linearGradient>
<clipPath id="clip0_759_7105">
<rect width="128" height="128" fill="white" transform="translate(0.200012)"/>
</clipPath>
<clipPath id="clip1_759_7105">
<rect width="70.2877" height="52.5643" fill="white" transform="translate(30.2 38)"/>
</clipPath>
</defs>
</svg>
