<svg width="128" height="128" viewBox="0 0 128 128" fill="none" xmlns="http://www.w3.org/2000/svg">
<g clip-path="url(#clip0_759_7108)">
<mask id="mask0_759_7108" style="mask-type:luminance" maskUnits="userSpaceOnUse" x="0" y="0" width="128" height="128">
<path fill-rule="evenodd" clip-rule="evenodd" d="M128 39.8644C128 38.3449 128.001 36.8252 127.991 35.3055C127.984 34.0254 127.969 32.7455 127.934 31.466C127.859 28.6772 127.694 25.8645 127.198 23.1067C126.695 20.3092 125.874 17.7056 124.58 15.1638C123.307 12.6654 121.645 10.3793 119.661 8.39733C117.679 6.41536 115.392 4.75416 112.893 3.4824C110.348 2.18764 107.742 1.36652 104.941 0.863686C102.183 0.368465 99.3695 0.204271 96.5807 0.128932C95.3003 0.0942909 94.0198 0.079689 92.739 0.0717667C91.2186 0.0624464 89.6981 0.0632231 88.1777 0.0632231L70.5238 0H57.32L39.9784 0.0632231C38.455 0.0632231 36.9316 0.0624464 35.4082 0.0717667C34.1248 0.079689 32.842 0.0942909 31.5591 0.128932C28.7637 0.204271 25.9439 0.36862 23.1793 0.864463C20.375 1.36714 17.7647 2.18795 15.2168 3.48177C12.7123 4.75369 10.4206 6.41504 8.43349 8.39733C6.44671 10.3791 4.78132 12.6648 3.50646 15.1627C2.20845 17.7057 1.38547 20.3109 0.881236 23.11C0.384774 25.8666 0.22027 28.6784 0.14462 31.466C0.110135 32.7457 0.0952226 34.0255 0.0874557 35.3055C0.0781353 36.8253 0 38.7132 0 40.2329L0.000466016 57.3342L0 70.6794L0.078912 88.144C0.078912 89.6657 0.0782907 91.1874 0.0874557 92.7091C0.0952226 93.991 0.110135 95.2725 0.144776 96.5539C0.22027 99.3463 0.385085 102.163 0.882013 104.925C1.38609 107.726 2.20892 110.333 3.50584 112.878C4.78086 115.38 6.44655 117.669 8.43349 119.654C10.4204 121.639 12.7115 123.302 15.2156 124.576C17.765 125.872 20.3765 126.694 23.1826 127.198C25.9459 127.694 28.7648 127.858 31.5591 127.934C32.842 127.968 34.125 127.983 35.4084 127.991C36.9318 128 38.455 128 39.9784 128L57.4767 128H70.7133L88.1777 127.999C89.6981 127.999 91.2186 128 92.739 127.991C94.0198 127.983 95.3003 127.968 96.5807 127.934C99.3706 127.858 102.185 127.694 104.944 127.197C107.743 126.694 110.348 125.872 112.891 124.576C115.391 123.303 117.678 121.639 119.661 119.654C121.644 117.669 123.307 115.381 124.579 112.879C125.874 110.333 126.696 107.724 127.199 104.921C127.695 102.161 127.859 99.3452 127.934 96.5539C127.969 95.2724 127.984 93.9908 127.991 92.7091C128.001 91.1874 128 89.6657 128 88.144C128 88.144 127.999 70.9877 127.999 70.6794V57.3202C127.999 57.0925 128 39.8644 128 39.8644Z" fill="white"/>
</mask>
<g mask="url(#mask0_759_7108)">
<rect x="-9.00977" y="-9.6311" width="141.981" height="141.981" fill="#CE0221"/>
<g filter="url(#filter0_ii_759_7108)">
<path fill-rule="evenodd" clip-rule="evenodd" d="M128 39.8644C128 38.3449 128.001 36.8252 127.991 35.3055C127.984 34.0254 127.969 32.7455 127.934 31.466C127.859 28.6772 127.694 25.8645 127.198 23.1067C126.695 20.3092 125.874 17.7056 124.58 15.1638C123.307 12.6654 121.645 10.3793 119.661 8.39733C117.679 6.41536 115.392 4.75416 112.893 3.4824C110.348 2.18764 107.742 1.36652 104.941 0.863686C102.183 0.368465 99.3695 0.204271 96.5807 0.128932C95.3003 0.0942909 94.0198 0.079689 92.739 0.0717667C91.2186 0.0624464 89.6981 0.0632231 88.1777 0.0632231L70.5238 0H57.32L39.9784 0.0632231C38.455 0.0632231 36.9316 0.0624464 35.4082 0.0717667C34.1248 0.079689 32.842 0.0942909 31.5591 0.128932C28.7637 0.204271 25.9439 0.36862 23.1793 0.864463C20.375 1.36714 17.7647 2.18795 15.2168 3.48177C12.7123 4.75369 10.4206 6.41504 8.43349 8.39733C6.44671 10.3791 4.78132 12.6648 3.50646 15.1627C2.20845 17.7057 1.38547 20.3109 0.881236 23.11C0.384774 25.8666 0.22027 28.6784 0.14462 31.466C0.110135 32.7457 0.0952226 34.0255 0.0874557 35.3055C0.0781353 36.8253 0 38.7132 0 40.2329L0.000466016 57.3342L0 70.6794L0.078912 88.144C0.078912 89.6657 0.0782907 91.1874 0.0874557 92.7091C0.0952226 93.991 0.110135 95.2725 0.144776 96.5539C0.22027 99.3463 0.385085 102.163 0.882013 104.925C1.38609 107.726 2.20892 110.333 3.50584 112.878C4.78086 115.38 6.44655 117.669 8.43349 119.654C10.4204 121.639 12.7115 123.302 15.2156 124.576C17.765 125.872 20.3765 126.694 23.1826 127.198C25.9459 127.694 28.7648 127.858 31.5591 127.934C32.842 127.968 34.125 127.983 35.4084 127.991C36.9318 128 38.455 128 39.9784 128L57.4767 128H70.7133L88.1777 127.999C89.6981 127.999 91.2186 128 92.739 127.991C94.0198 127.983 95.3003 127.968 96.5807 127.934C99.3706 127.858 102.185 127.694 104.944 127.197C107.743 126.694 110.348 125.872 112.891 124.576C115.391 123.303 117.678 121.639 119.661 119.654C121.644 117.669 123.307 115.381 124.579 112.879C125.874 110.333 126.696 107.724 127.199 104.921C127.695 102.161 127.859 99.3452 127.934 96.5539C127.969 95.2724 127.984 93.9908 127.991 92.7091C128.001 91.1874 128 89.6657 128 88.144C128 88.144 127.999 70.9877 127.999 70.6794V57.3202C127.999 57.0925 128 39.8644 128 39.8644Z" fill="url(#paint0_linear_759_7108)" fill-opacity="0.01"/>
</g>
<g filter="url(#filter1_d_759_7108)">
<path d="M86.9555 35.3782C81.9995 30.6204 75.1407 28 67.643 28C56.1899 28 49.1457 32.6948 45.2532 36.633C40.4559 41.4864 37.7051 47.9309 37.7051 54.3141C37.7051 62.3288 41.0575 68.4803 46.6714 70.7689C47.0482 70.9233 47.4275 71.001 47.7993 71.001C48.9837 71.001 49.9221 70.2261 50.2472 68.9831C50.4368 68.27 50.8758 66.5106 51.0668 65.7468C51.4754 64.2386 51.1452 63.5132 50.2539 62.4628C48.6303 60.5416 47.8741 58.2698 47.8741 55.3131C47.8741 46.5309 54.4135 37.1973 66.5336 37.1973C76.1504 37.1973 82.1242 42.6632 82.1242 51.4615C82.1242 57.0137 80.9283 62.1556 78.7561 65.9405C77.2466 68.5705 74.5923 71.7054 70.5175 71.7054C68.7555 71.7054 67.1726 70.9816 66.1739 69.7197C65.2304 68.5267 64.9194 66.9858 65.2989 65.3797C65.7275 63.565 66.3121 61.6722 66.8778 59.8424C67.9096 56.5003 68.885 53.3437 68.885 50.8252C68.885 46.5176 66.2367 43.6231 62.2957 43.6231C57.2872 43.6231 53.3633 48.7101 53.3633 55.2042C53.3633 58.389 54.2097 60.7712 54.5929 61.6859C53.962 64.3592 50.212 80.2527 49.5007 83.2497C49.0894 84.9992 46.6119 98.8176 50.7127 99.9194C55.3201 101.157 59.4386 87.6992 59.8578 86.1785C60.1976 84.9417 61.3863 80.2649 62.1147 77.3901C64.339 79.5325 67.9203 80.981 71.405 80.981C77.9743 80.981 83.8823 78.0247 88.0407 72.6575C92.0737 67.4515 94.2949 60.1955 94.2949 52.2271C94.2946 45.9977 91.6194 39.8563 86.9555 35.3782Z" fill="url(#paint1_linear_759_7108)"/>
</g>
</g>
</g>
<defs>
<filter id="filter0_ii_759_7108" x="0" y="-3.1068" width="128" height="133.282" filterUnits="userSpaceOnUse" color-interpolation-filters="sRGB">
<feFlood flood-opacity="0" result="BackgroundImageFix"/>
<feBlend mode="normal" in="SourceGraphic" in2="BackgroundImageFix" result="shape"/>
<feColorMatrix in="SourceAlpha" type="matrix" values="0 0 0 0 0 0 0 0 0 0 0 0 0 0 0 0 0 0 127 0" result="hardAlpha"/>
<feOffset dy="-3.1068"/>
<feGaussianBlur stdDeviation="3.1068"/>
<feComposite in2="hardAlpha" operator="arithmetic" k2="-1" k3="1"/>
<feColorMatrix type="matrix" values="0 0 0 0 0 0 0 0 0 0 0 0 0 0 0 0 0 0 0.3 0"/>
<feBlend mode="normal" in2="shape" result="effect1_innerShadow_759_7108"/>
<feColorMatrix in="SourceAlpha" type="matrix" values="0 0 0 0 0 0 0 0 0 0 0 0 0 0 0 0 0 0 127 0" result="hardAlpha"/>
<feOffset dy="2.17476"/>
<feGaussianBlur stdDeviation="4.97087"/>
<feComposite in2="hardAlpha" operator="arithmetic" k2="-1" k3="1"/>
<feColorMatrix type="matrix" values="0 0 0 0 1 0 0 0 0 1 0 0 0 0 1 0 0 0 0.15 0"/>
<feBlend mode="normal" in2="effect1_innerShadow_759_7108" result="effect2_innerShadow_759_7108"/>
</filter>
<filter id="filter1_d_759_7108" x="34.9051" y="27.2" width="62.1898" height="77.5998" filterUnits="userSpaceOnUse" color-interpolation-filters="sRGB">
<feFlood flood-opacity="0" result="BackgroundImageFix"/>
<feColorMatrix in="SourceAlpha" type="matrix" values="0 0 0 0 0 0 0 0 0 0 0 0 0 0 0 0 0 0 127 0" result="hardAlpha"/>
<feOffset dy="2"/>
<feGaussianBlur stdDeviation="1.4"/>
<feComposite in2="hardAlpha" operator="out"/>
<feColorMatrix type="matrix" values="0 0 0 0 0 0 0 0 0 0 0 0 0 0 0 0 0 0 0.25 0"/>
<feBlend mode="normal" in2="BackgroundImageFix" result="effect1_dropShadow_759_7108"/>
<feBlend mode="normal" in="SourceGraphic" in2="effect1_dropShadow_759_7108" result="shape"/>
</filter>
<linearGradient id="paint0_linear_759_7108" x1="-43.6723" y1="0" x2="-43.6723" y2="215.345" gradientUnits="userSpaceOnUse">
<stop stop-color="white"/>
<stop offset="0.489516" stop-color="#EFEFEF"/>
<stop offset="1" stop-color="#C0C0C0"/>
</linearGradient>
<linearGradient id="paint1_linear_759_7108" x1="66" y1="28" x2="66" y2="99.9997" gradientUnits="userSpaceOnUse">
<stop stop-color="white"/>
<stop offset="1" stop-color="#FFBAC7"/>
</linearGradient>
<clipPath id="clip0_759_7108">
<rect width="128" height="128" fill="white"/>
</clipPath>
</defs>
</svg>
