<svg width="129" height="128" viewBox="0 0 129 128" fill="none" xmlns="http://www.w3.org/2000/svg">
<g clip-path="url(#clip0_759_7104)">
<mask id="mask0_759_7104" style="mask-type:luminance" maskUnits="userSpaceOnUse" x="0" y="0" width="129" height="128">
<path fill-rule="evenodd" clip-rule="evenodd" d="M128.4 39.8644C128.4 38.3449 128.401 36.8252 128.391 35.3055C128.384 34.0254 128.369 32.7455 128.334 31.466C128.259 28.6772 128.094 25.8645 127.598 23.1067C127.095 20.3092 126.274 17.7056 124.98 15.1638C123.707 12.6654 122.045 10.3793 120.061 8.39733C118.079 6.41536 115.792 4.75416 113.293 3.4824C110.748 2.18764 108.142 1.36652 105.341 0.863686C102.583 0.368465 99.7695 0.204271 96.9808 0.128932C95.7003 0.0942909 94.4198 0.079689 93.1391 0.0717667C91.6186 0.0624464 90.0982 0.0632231 88.5777 0.0632231L70.9238 0H57.72L40.3784 0.0632231C38.855 0.0632231 37.3316 0.0624464 35.8082 0.0717667C34.5248 0.079689 33.242 0.0942909 31.9591 0.128932C29.1638 0.204271 26.3439 0.36862 23.5793 0.864463C20.775 1.36714 18.1647 2.18795 15.6168 3.48177C13.1123 4.75369 10.8206 6.41504 8.83352 8.39733C6.84673 10.3791 5.18135 12.6648 3.90648 15.1627C2.60847 17.7057 1.78549 20.3109 1.28126 23.11C0.784798 25.8666 0.620295 28.6784 0.544645 31.466C0.51016 32.7457 0.495247 34.0255 0.48748 35.3055C0.47816 36.8253 0.400024 38.7132 0.400024 40.2329L0.40049 57.3342L0.400024 70.6794L0.478936 88.144C0.478936 89.6657 0.478315 91.1874 0.48748 92.7091C0.495247 93.991 0.51016 95.2725 0.5448 96.5539C0.620295 99.3463 0.785109 102.163 1.28204 104.925C1.78611 107.726 2.60894 110.333 3.90586 112.878C5.18088 115.38 6.84658 117.669 8.83352 119.654C10.8205 121.639 13.1115 123.302 15.6156 124.576C18.165 125.872 20.7766 126.694 23.5826 127.198C26.3459 127.694 29.1649 127.858 31.9591 127.934C33.242 127.968 34.525 127.983 35.8084 127.991C37.3318 128 38.855 128 40.3784 128L57.8767 128H71.1133L88.5777 127.999C90.0982 127.999 91.6186 128 93.1391 127.991C94.4198 127.983 95.7003 127.968 96.9808 127.934C99.7706 127.858 102.585 127.694 105.344 127.197C108.143 126.694 110.748 125.872 113.291 124.576C115.791 123.303 118.078 121.639 120.061 119.654C122.044 117.669 123.707 115.381 124.979 112.879C126.274 110.333 127.096 107.724 127.599 104.921C128.095 102.161 128.259 99.3452 128.334 96.5539C128.369 95.2724 128.384 93.9908 128.391 92.7091C128.401 91.1874 128.4 89.6657 128.4 88.144C128.4 88.144 128.399 70.9877 128.399 70.6794V57.3202C128.399 57.0925 128.4 39.8644 128.4 39.8644Z" fill="white"/>
</mask>
<g mask="url(#mask0_759_7104)">
<rect x="-8.60974" y="-9.63104" width="141.981" height="141.981" fill="#101010"/>
<g filter="url(#filter0_ii_759_7104)">
<path fill-rule="evenodd" clip-rule="evenodd" d="M128.4 39.8644C128.4 38.3449 128.401 36.8252 128.391 35.3055C128.384 34.0254 128.369 32.7455 128.334 31.466C128.259 28.6772 128.094 25.8645 127.598 23.1067C127.095 20.3092 126.274 17.7056 124.98 15.1638C123.707 12.6654 122.045 10.3793 120.061 8.39733C118.079 6.41536 115.792 4.75416 113.293 3.4824C110.748 2.18764 108.142 1.36652 105.341 0.863686C102.583 0.368465 99.7695 0.204271 96.9808 0.128932C95.7003 0.0942909 94.4198 0.079689 93.1391 0.0717667C91.6186 0.0624464 90.0982 0.0632231 88.5777 0.0632231L70.9238 0H57.72L40.3784 0.0632231C38.855 0.0632231 37.3316 0.0624464 35.8082 0.0717667C34.5248 0.079689 33.242 0.0942909 31.9591 0.128932C29.1638 0.204271 26.3439 0.36862 23.5793 0.864463C20.775 1.36714 18.1647 2.18795 15.6168 3.48177C13.1123 4.75369 10.8206 6.41504 8.83352 8.39733C6.84673 10.3791 5.18135 12.6648 3.90648 15.1627C2.60847 17.7057 1.78549 20.3109 1.28126 23.11C0.784798 25.8666 0.620295 28.6784 0.544645 31.466C0.51016 32.7457 0.495247 34.0255 0.48748 35.3055C0.47816 36.8253 0.400024 38.7132 0.400024 40.2329L0.40049 57.3342L0.400024 70.6794L0.478936 88.144C0.478936 89.6657 0.478315 91.1874 0.48748 92.7091C0.495247 93.991 0.51016 95.2725 0.5448 96.5539C0.620295 99.3463 0.785109 102.163 1.28204 104.925C1.78611 107.726 2.60894 110.333 3.90586 112.878C5.18088 115.38 6.84658 117.669 8.83352 119.654C10.8205 121.639 13.1115 123.302 15.6156 124.576C18.165 125.872 20.7766 126.694 23.5826 127.198C26.3459 127.694 29.1649 127.858 31.9591 127.934C33.242 127.968 34.525 127.983 35.8084 127.991C37.3318 128 38.855 128 40.3784 128L57.8767 128H71.1133L88.5777 127.999C90.0982 127.999 91.6186 128 93.1391 127.991C94.4198 127.983 95.7003 127.968 96.9808 127.934C99.7706 127.858 102.585 127.694 105.344 127.197C108.143 126.694 110.748 125.872 113.291 124.576C115.791 123.303 118.078 121.639 120.061 119.654C122.044 117.669 123.707 115.381 124.979 112.879C126.274 110.333 127.096 107.724 127.599 104.921C128.095 102.161 128.259 99.3452 128.334 96.5539C128.369 95.2724 128.384 93.9908 128.391 92.7091C128.401 91.1874 128.4 89.6657 128.4 88.144C128.4 88.144 128.399 70.9877 128.399 70.6794V57.3202C128.399 57.0925 128.4 39.8644 128.4 39.8644Z" fill="#04045D"/>
</g>
</g>
<g clip-path="url(#clip1_759_7104)" filter="url(#filter1_dd_759_7104)">
<path d="M36.4 87.5637V40.7723C36.4 40.4543 36.5363 40.2726 36.8543 40.2726C37.6266 40.2726 38.3535 40.2726 39.3983 40.2271C40.4886 40.1817 41.6243 40.1817 42.8509 40.1363C44.0774 40.0909 45.3949 40.0909 46.8032 40.0454C48.2114 40 49.5743 40 50.9372 40C54.6623 40 57.7514 40.4543 60.2954 41.4083C62.5669 42.1806 64.6566 43.4526 66.3829 45.1334C67.8366 46.5871 68.9723 48.3589 69.6992 50.3123C70.3806 52.2203 70.744 54.1737 70.744 56.218C70.744 60.1248 69.8354 63.3503 68.0183 65.8943C66.2012 68.4383 63.6572 70.3463 60.7043 71.4366C57.6152 72.5723 54.208 72.9811 50.4829 72.9811C49.3926 72.9811 48.6657 72.9811 48.2114 72.9357C47.7572 72.8903 47.1212 72.8903 46.258 72.8903V87.4728C46.3034 87.7908 46.0763 88.0634 45.7583 88.1088H45.5766H36.9452C36.5817 88.1088 36.4 87.9271 36.4 87.5183V87.5637ZM46.3034 49.0857V64.3497C46.9394 64.3951 47.53 64.4406 48.0752 64.4406H50.4829C52.2546 64.4406 54.0263 64.168 55.7072 63.6228C57.1609 63.214 58.4329 62.3508 59.4323 61.2151C60.3863 60.0794 60.8406 58.5348 60.8406 56.536C60.886 55.1277 60.5226 53.7194 59.7957 52.4929C59.0234 51.3117 57.9332 50.4031 56.6157 49.9034C54.9349 49.222 53.1177 48.9494 51.2552 48.9949C50.074 48.9949 49.0292 48.9949 48.166 49.0403C47.2574 48.9949 46.6214 49.0403 46.3034 49.0857Z" fill="url(#paint0_linear_759_7104)"/>
<path d="M77.2854 51.7663H85.2354C85.6897 51.7663 86.0531 52.0843 86.1894 52.4932C86.3257 52.8566 86.4165 53.22 86.4619 53.6289C86.5528 54.0832 86.6437 54.5829 86.6891 55.0371C86.7345 55.5369 86.7799 56.082 86.7799 56.6726C88.1428 55.0826 89.7782 53.7652 91.6408 52.7657C93.7305 51.5846 96.1382 50.994 98.5459 50.994C98.8639 50.9486 99.1365 51.1757 99.1819 51.4937V51.6754V60.534C99.1819 60.8974 98.9548 61.0337 98.4551 61.0337C96.8197 60.9883 95.1388 61.1246 93.5488 61.488C92.2314 61.7606 90.9594 62.1694 89.7328 62.7146C88.8697 63.1234 88.0519 63.6686 87.4159 64.3954V87.564C87.4159 88.0183 87.2342 88.2 86.8254 88.2H77.8759C77.5125 88.2454 77.1945 88.0183 77.1491 87.6548V87.4731V62.3057C77.1491 61.2154 77.1491 60.0797 77.1037 58.8986C77.0582 57.7174 77.0582 56.5363 77.0128 55.3551C77.0128 54.3103 76.9219 53.3109 76.8311 52.266C76.7857 52.0389 76.9219 51.8117 77.1491 51.7663C77.1491 51.7209 77.2399 51.7209 77.2854 51.7663Z" fill="url(#paint1_linear_759_7104)"/>
</g>
</g>
<defs>
<filter id="filter0_ii_759_7104" x="0.400024" y="-3.1068" width="128" height="133.282" filterUnits="userSpaceOnUse" color-interpolation-filters="sRGB">
<feFlood flood-opacity="0" result="BackgroundImageFix"/>
<feBlend mode="normal" in="SourceGraphic" in2="BackgroundImageFix" result="shape"/>
<feColorMatrix in="SourceAlpha" type="matrix" values="0 0 0 0 0 0 0 0 0 0 0 0 0 0 0 0 0 0 127 0" result="hardAlpha"/>
<feOffset dy="-3.1068"/>
<feGaussianBlur stdDeviation="3.1068"/>
<feComposite in2="hardAlpha" operator="arithmetic" k2="-1" k3="1"/>
<feColorMatrix type="matrix" values="0 0 0 0 0 0 0 0 0 0 0 0 0 0 0 0 0 0 0.3 0"/>
<feBlend mode="normal" in2="shape" result="effect1_innerShadow_759_7104"/>
<feColorMatrix in="SourceAlpha" type="matrix" values="0 0 0 0 0 0 0 0 0 0 0 0 0 0 0 0 0 0 127 0" result="hardAlpha"/>
<feOffset dy="2.17476"/>
<feGaussianBlur stdDeviation="4.97087"/>
<feComposite in2="hardAlpha" operator="arithmetic" k2="-1" k3="1"/>
<feColorMatrix type="matrix" values="0 0 0 0 1 0 0 0 0 1 0 0 0 0 1 0 0 0 0.15 0"/>
<feBlend mode="normal" in2="effect1_innerShadow_759_7104" result="effect2_innerShadow_759_7104"/>
</filter>
<filter id="filter1_dd_759_7104" x="29.6128" y="34.9095" width="76.3568" height="61.78" filterUnits="userSpaceOnUse" color-interpolation-filters="sRGB">
<feFlood flood-opacity="0" result="BackgroundImageFix"/>
<feColorMatrix in="SourceAlpha" type="matrix" values="0 0 0 0 0 0 0 0 0 0 0 0 0 0 0 0 0 0 127 0" result="hardAlpha"/>
<feMorphology radius="1.69682" operator="dilate" in="SourceAlpha" result="effect1_dropShadow_759_7104"/>
<feOffset dy="1.69682"/>
<feGaussianBlur stdDeviation="2.54523"/>
<feColorMatrix type="matrix" values="0 0 0 0 0 0 0 0 0 0 0 0 0 0 0 0 0 0 0.15 0"/>
<feBlend mode="normal" in2="BackgroundImageFix" result="effect1_dropShadow_759_7104"/>
<feColorMatrix in="SourceAlpha" type="matrix" values="0 0 0 0 0 0 0 0 0 0 0 0 0 0 0 0 0 0 127 0" result="hardAlpha"/>
<feOffset dy="1.69682"/>
<feGaussianBlur stdDeviation="1.69682"/>
<feColorMatrix type="matrix" values="0 0 0 0 0 0 0 0 0 0 0 0 0 0 0 0 0 0 0.3 0"/>
<feBlend mode="normal" in2="effect1_dropShadow_759_7104" result="effect2_dropShadow_759_7104"/>
<feBlend mode="normal" in="SourceGraphic" in2="effect2_dropShadow_759_7104" result="shape"/>
</filter>
<linearGradient id="paint0_linear_759_7104" x1="53.572" y1="40" x2="53.572" y2="88.1088" gradientUnits="userSpaceOnUse">
<stop stop-color="#CBCBFF"/>
<stop offset="1" stop-color="#8989FF"/>
</linearGradient>
<linearGradient id="paint1_linear_759_7104" x1="88.0022" y1="50.9882" x2="88.0022" y2="88.2057" gradientUnits="userSpaceOnUse">
<stop stop-color="#CBCBFF"/>
<stop offset="1" stop-color="#8989FF"/>
</linearGradient>
<clipPath id="clip0_759_7104">
<rect width="128" height="128" fill="white" transform="translate(0.400024)"/>
</clipPath>
<clipPath id="clip1_759_7104">
<rect width="62.7823" height="48.2054" fill="white" transform="translate(36.4 40)"/>
</clipPath>
</defs>
</svg>
