<svg width="219" height="48" viewBox="0 0 219 48" fill="none" xmlns="http://www.w3.org/2000/svg">
<g clip-path="url(#clip0_643_4770)">
<path d="M11.5954 39.9931H12.8187C15.3654 39.9931 15.9254 39.0264 15.9254 36.3764V28.3331L6.14874 10.8198C4.16208 7.25644 3.50208 6.79644 1.00541 6.79644H0.54541V5.26978C2.73541 5.31978 4.87208 5.42311 6.96208 5.42311C9.05208 5.42311 11.2887 5.31978 13.4287 5.26978V6.79644H12.5121C11.4421 6.79644 10.6287 7.15311 10.6287 8.42644C10.6287 9.13978 11.2387 10.5131 11.7487 11.4298L19.2854 25.0231L26.3121 11.5831C26.7187 10.8198 27.6854 8.88311 27.6854 7.96644C27.6854 7.09978 27.0754 6.79644 25.6987 6.79644H24.7321V5.26978C26.8187 5.31978 28.1954 5.42311 29.7721 5.42311C31.4521 5.42311 33.1821 5.31978 34.8121 5.26978V6.79644H33.5387C31.4521 6.79644 30.9921 7.45977 29.4154 10.4098L20.4021 27.2631V36.3764C20.4021 39.3798 21.5221 39.9931 23.5087 39.9931H24.5254V41.5198C22.3854 41.4698 20.1987 41.3664 18.0587 41.3664C15.9187 41.3664 13.4754 41.4698 11.5921 41.5198V39.9931H11.5954Z" fill="white"/>
<path d="M57.3653 4.60645C67.4986 4.60645 76.3553 12.8031 76.3553 23.3931C76.3553 32.3531 69.432 42.1798 57.212 42.1798C46.2153 42.1798 38.272 33.8798 38.272 23.7998C38.272 12.4464 47.3353 4.60645 57.3653 4.60645ZM57.212 6.74311C50.0853 6.74311 43.362 11.1231 43.362 22.9331C43.362 31.1798 48.7586 40.2431 57.5153 40.2431C66.9353 40.2431 71.262 33.3198 71.262 23.9498C71.262 15.7531 66.1186 6.73978 57.2086 6.73978L57.212 6.74311Z" fill="white"/>
<path d="M84.3489 39.9931H85.2655C87.6089 39.9931 88.6255 39.1264 88.6255 35.8198V10.9698C88.6255 7.65977 87.6055 6.79644 85.2655 6.79644H84.3489V5.26978C86.1322 5.31978 88.5755 5.42311 90.8655 5.42311C94.2755 5.42311 96.7222 5.26978 98.9622 5.26978C107.976 5.26978 109.602 12.3464 109.602 14.6898C109.602 21.3598 104.919 23.3964 102.372 24.2098L109.196 35.5131C111.996 40.0964 112.809 40.3998 116.936 40.6564V41.7264C115.969 41.7264 115.052 41.7764 114.086 41.7764C109.606 41.7764 107.519 41.2164 104.819 36.7864L98.8622 27.0631C97.6922 25.1798 97.0289 25.0764 93.1089 24.9764V34.5998C93.1089 39.4364 93.9755 39.9964 96.0122 39.9964H97.4889V41.5231C95.2489 41.4731 93.1089 41.3698 90.8689 41.3698C88.6289 41.3698 86.1355 41.4731 84.3522 41.5231V39.9964L84.3489 39.9931ZM93.1055 22.6831C93.9722 22.9898 95.2455 23.0398 96.5689 23.0398C101.152 23.0398 104.919 20.9531 104.919 15.6564C104.919 13.4164 103.392 7.20311 96.3155 7.20311C95.0922 7.20311 94.1255 7.30644 93.1089 7.40644V22.6798L93.1055 22.6831Z" fill="white"/>
<path d="M124.879 39.9929H125.795C128.139 39.9929 129.155 39.1262 129.155 35.8196V10.9696C129.155 7.65957 128.135 6.79624 125.795 6.79624H124.879V5.26957C126.662 5.31957 129.105 5.4229 131.395 5.4229C133.685 5.4229 135.775 5.31957 138.015 5.26957V6.79624H136.539C134.502 6.79624 133.635 7.35624 133.635 12.1929V24.1562L144.785 11.7329C145.295 11.1729 147.229 9.13624 147.229 8.11624C147.229 7.19957 146.515 6.7929 145.549 6.7929H144.632V5.26624C146.515 5.31624 148.652 5.41957 150.639 5.41957C152.625 5.41957 154.659 5.31624 156.699 5.26624V6.7929H155.782C153.289 6.7929 152.422 7.24957 149.419 10.4062L139.592 20.7429L152.729 36.1196C155.579 39.4796 157.055 39.9896 159.142 39.9896H159.905V41.5162C158.275 41.4662 156.595 41.3629 154.965 41.3629C153.335 41.3629 151.655 41.4662 150.025 41.5162C149.772 40.0396 149.619 39.2762 146.715 35.9662L136.279 24.0029L133.632 26.8029V34.5929C133.632 39.4296 134.495 39.9896 136.535 39.9896H138.012V41.5162C135.772 41.4662 133.632 41.3629 131.392 41.3629C129.152 41.3629 126.659 41.4662 124.875 41.5162V39.9896L124.879 39.9929Z" fill="white"/>
<path d="M203.739 42.1965C195.595 42.1965 188.549 37.1632 188.549 26.1599V-0.00012207H170.355V47.9999H218.355V30.4865C216.912 37.4665 211.839 42.1965 203.739 42.1965Z" fill="white"/>
<path d="M203.739 32.3699C208.109 32.3699 209.449 28.5299 209.449 24.7765V-0.00012207H198.279V24.7765C198.279 28.6865 199.669 32.3699 203.739 32.3699Z" fill="white"/>
</g>
<defs>
<clipPath id="clip0_643_4770">
<rect width="217.807" height="48" fill="white" transform="translate(0.54541)"/>
</clipPath>
</defs>
</svg>
