<svg width="182" height="58" viewBox="0 0 182 58" fill="none" xmlns="http://www.w3.org/2000/svg">
<path d="M7.22644 12.6L0.282441 1.148H4.25844L9.01844 9.464L13.8064 1.148H17.5864L10.5864 12.6V21H7.22644V12.6ZM22.1776 18.508C24.1936 18.508 25.9856 17.024 25.9856 14.168C25.9856 11.34 24.1936 9.884 22.1776 9.884C20.1896 9.884 18.3696 11.34 18.3696 14.168C18.3696 16.996 20.1896 18.508 22.1776 18.508ZM22.1776 6.944C26.2656 6.944 29.2616 9.996 29.2616 14.168C29.2616 18.368 26.2656 21.42 22.1776 21.42C18.1176 21.42 15.1216 18.368 15.1216 14.168C15.1216 9.996 18.1176 6.944 22.1776 6.944ZM39.2604 7.28V10.584C38.8964 10.528 38.5324 10.5 38.1964 10.5C35.6764 10.5 34.5284 11.956 34.5284 14.504V21H31.2804V7.364H34.4444V9.548C35.0884 8.064 36.6004 7.196 38.3924 7.196C38.7844 7.196 39.1204 7.252 39.2604 7.28ZM53.6198 7.364L48.0198 13.132L53.7318 21H49.7558L45.7518 15.428L44.0718 17.192V21H40.8518V0.727999H44.0718V12.88L49.3078 7.364H53.6198ZM68.2356 21.42C64.0916 21.42 60.8436 18.872 60.8436 14.084V1.148H64.1756V13.888C64.1756 16.688 65.7156 18.228 68.2356 18.228C70.7836 18.228 72.2956 16.688 72.2956 13.888V1.148H75.6556V14.084C75.6556 18.872 72.4076 21.42 68.2356 21.42ZM81.8922 13.132V21H78.6442V7.364H81.8082V9.184C82.7042 7.616 84.3282 6.972 85.8402 6.972C89.1722 6.972 90.7682 9.38 90.7682 12.376V21H87.5202V12.936C87.5202 11.256 86.7642 9.912 84.7202 9.912C82.8722 9.912 81.8922 11.34 81.8922 13.132ZM96.8223 21H93.6023V7.364H96.8223V21ZM93.0983 2.576C93.0983 1.4 94.0503 0.447999 95.1983 0.447999C96.3743 0.447999 97.3263 1.4 97.3263 2.576C97.3263 3.752 96.3743 4.676 95.1983 4.676C94.0503 4.676 93.0983 3.752 93.0983 2.576ZM112.212 7.364L106.864 21H103.616L98.0724 7.364H101.656L105.268 17.108L108.796 7.364H112.212ZM115.341 12.684H122.033C121.977 11.088 120.913 9.66 118.673 9.66C116.629 9.66 115.453 11.228 115.341 12.684ZM122.397 16.24L125.141 17.108C124.413 19.488 122.257 21.42 118.981 21.42C115.285 21.42 112.009 18.732 112.009 14.112C112.009 9.8 115.201 6.944 118.645 6.944C122.845 6.944 125.309 9.716 125.309 14.028C125.309 14.56 125.253 15.008 125.225 15.064H115.257C115.341 17.136 116.965 18.62 118.981 18.62C120.941 18.62 121.949 17.584 122.397 16.24ZM135.273 7.28V10.584C134.909 10.528 134.545 10.5 134.209 10.5C131.689 10.5 130.541 11.956 130.541 14.504V21H127.293V7.364H130.457V9.548C131.101 8.064 132.613 7.196 134.405 7.196C134.797 7.196 135.133 7.252 135.273 7.28ZM135.688 17.304L138.516 16.52C138.628 17.752 139.552 18.844 141.288 18.844C142.632 18.844 143.332 18.116 143.332 17.276C143.332 16.548 142.828 15.988 141.736 15.764L139.72 15.316C137.312 14.784 136.052 13.216 136.052 11.34C136.052 8.96 138.236 6.944 141.064 6.944C144.872 6.944 146.104 9.408 146.328 10.752L143.584 11.536C143.472 10.752 142.884 9.492 141.064 9.492C139.916 9.492 139.104 10.22 139.104 11.06C139.104 11.788 139.636 12.32 140.476 12.488L142.548 12.908C145.124 13.468 146.468 15.036 146.468 17.052C146.468 19.124 144.788 21.42 141.316 21.42C137.368 21.42 135.856 18.844 135.688 17.304ZM151.789 21H148.569V7.364H151.789V21ZM148.065 2.576C148.065 1.4 149.017 0.447999 150.165 0.447999C151.341 0.447999 152.293 1.4 152.293 2.576C152.293 3.752 151.341 4.676 150.165 4.676C149.017 4.676 148.065 3.752 148.065 2.576ZM158.975 3.192V7.364H161.803V10.248H158.975V16.576C158.975 17.78 159.507 18.284 160.711 18.284C161.159 18.284 161.691 18.2 161.831 18.172V20.86C161.635 20.944 161.019 21.168 159.843 21.168C157.323 21.168 155.755 19.656 155.755 17.108V10.248H153.235V7.364H153.935C155.391 7.364 156.035 6.44 156.035 5.236V3.192H158.975ZM168.383 26.516H164.911L168.187 19.376L162.363 7.364H166.031L169.951 15.988L173.619 7.364H177.063L168.383 26.516ZM15.4304 41.796L12.4064 42.748C12.2104 41.516 11.1744 39.696 8.51444 39.696C6.49844 39.696 5.09844 41.04 5.09844 42.552C5.09844 43.812 5.88244 44.764 7.42244 45.1L10.2784 45.688C13.7784 46.388 15.6544 48.6 15.6544 51.4C15.6544 54.48 13.1624 57.42 8.62644 57.42C3.58644 57.42 1.26244 54.172 0.954441 51.316L4.09044 50.42C4.28644 52.492 5.77044 54.396 8.62644 54.396C11.0064 54.396 12.2384 53.192 12.2384 51.652C12.2384 50.364 11.2864 49.328 9.57844 48.964L6.77844 48.376C3.75444 47.76 1.73844 45.772 1.73844 42.804C1.73844 39.472 4.79044 36.728 8.48644 36.728C13.1624 36.728 14.9824 39.584 15.4304 41.796ZM21.8055 39.192V43.364H24.6335V46.248H21.8055V52.576C21.8055 53.78 22.3375 54.284 23.5415 54.284C23.9895 54.284 24.5215 54.2 24.6615 54.172V56.86C24.4655 56.944 23.8495 57.168 22.6735 57.168C20.1535 57.168 18.5855 55.656 18.5855 53.108V46.248H16.0655V43.364H16.7655C18.2215 43.364 18.8655 42.44 18.8655 41.236V39.192H21.8055ZM35.7541 55.488C35.0821 56.72 33.4861 57.392 31.8901 57.392C28.6421 57.392 26.7381 54.984 26.7381 51.96V43.364H29.9861V51.372C29.9861 53.052 30.7701 54.48 32.7301 54.48C34.6061 54.48 35.5861 53.22 35.5861 51.428V43.364H38.8341V54.508C38.8341 55.628 38.9181 56.496 38.9741 57H35.8661C35.8101 56.692 35.7541 56.048 35.7541 55.488ZM44.0202 50.14C44.0202 52.744 45.4762 54.48 47.6882 54.48C49.8162 54.48 51.3002 52.716 51.3002 50.112C51.3002 47.508 49.8442 45.884 47.7162 45.884C45.5882 45.884 44.0202 47.536 44.0202 50.14ZM54.4362 36.728V54.508C54.4362 55.74 54.5482 56.776 54.5762 57H51.4682C51.4122 56.692 51.3282 55.796 51.3282 55.236C50.6842 56.384 49.2562 57.336 47.3242 57.336C43.4042 57.336 40.7722 54.256 40.7722 50.14C40.7722 46.22 43.4322 43 47.2682 43C49.6482 43 50.8522 44.092 51.2722 44.96V36.728H54.4362ZM59.8279 48.684H66.5199C66.4639 47.088 65.3999 45.66 63.1599 45.66C61.1159 45.66 59.9399 47.228 59.8279 48.684ZM66.8839 52.24L69.6279 53.108C68.8999 55.488 66.7439 57.42 63.4679 57.42C59.7719 57.42 56.4959 54.732 56.4959 50.112C56.4959 45.8 59.6879 42.944 63.1319 42.944C67.3319 42.944 69.7959 45.716 69.7959 50.028C69.7959 50.56 69.7399 51.008 69.7119 51.064H59.7439C59.8279 53.136 61.4519 54.62 63.4679 54.62C65.4279 54.62 66.4359 53.584 66.8839 52.24ZM75.0278 49.132V57H71.7798V43.364H74.9438V45.184C75.8398 43.616 77.4638 42.972 78.9758 42.972C82.3078 42.972 83.9038 45.38 83.9038 48.376V57H80.6558V48.936C80.6558 47.256 79.8998 45.912 77.8558 45.912C76.0078 45.912 75.0278 47.34 75.0278 49.132ZM90.8539 39.192V43.364H93.6819V46.248H90.8539V52.576C90.8539 53.78 91.3859 54.284 92.5899 54.284C93.0379 54.284 93.5699 54.2 93.7099 54.172V56.86C93.5139 56.944 92.8979 57.168 91.7219 57.168C89.2019 57.168 87.6339 55.656 87.6339 53.108V46.248H85.1139V43.364H85.8139C87.2699 43.364 87.9139 42.44 87.9139 41.236V39.192H90.8539ZM110.77 57.42C105.422 57.42 100.746 53.556 100.746 47.088C100.746 40.62 105.59 36.728 110.742 36.728C115.782 36.728 118.778 39.696 119.674 43.168L116.51 44.232C115.922 41.824 114.074 39.892 110.742 39.892C107.466 39.892 104.19 42.272 104.19 47.088C104.19 51.736 107.382 54.2 110.77 54.2C114.102 54.2 116.006 52.072 116.678 49.832L119.758 50.84C118.862 54.2 115.838 57.42 110.77 57.42ZM123.544 48.684H130.236C130.18 47.088 129.116 45.66 126.876 45.66C124.832 45.66 123.656 47.228 123.544 48.684ZM130.6 52.24L133.344 53.108C132.616 55.488 130.46 57.42 127.184 57.42C123.488 57.42 120.212 54.732 120.212 50.112C120.212 45.8 123.404 42.944 126.848 42.944C131.048 42.944 133.512 45.716 133.512 50.028C133.512 50.56 133.456 51.008 133.428 51.064H123.46C123.544 53.136 125.168 54.62 127.184 54.62C129.144 54.62 130.152 53.584 130.6 52.24ZM138.744 49.132V57H135.496V43.364H138.66V45.184C139.556 43.616 141.18 42.972 142.692 42.972C146.024 42.972 147.62 45.38 147.62 48.376V57H144.372V48.936C144.372 47.256 143.616 45.912 141.572 45.912C139.724 45.912 138.744 47.34 138.744 49.132ZM154.57 39.192V43.364H157.398V46.248H154.57V52.576C154.57 53.78 155.102 54.284 156.306 54.284C156.754 54.284 157.286 54.2 157.426 54.172V56.86C157.23 56.944 156.614 57.168 155.438 57.168C152.918 57.168 151.35 55.656 151.35 53.108V46.248H148.83V43.364H149.53C150.986 43.364 151.63 42.44 151.63 41.236V39.192H154.57ZM167.349 43.28V46.584C166.985 46.528 166.621 46.5 166.285 46.5C163.765 46.5 162.617 47.956 162.617 50.504V57H159.369V43.364H162.533V45.548C163.177 44.064 164.689 43.196 166.481 43.196C166.873 43.196 167.209 43.252 167.349 43.28ZM171.072 48.684H177.764C177.708 47.088 176.644 45.66 174.404 45.66C172.36 45.66 171.184 47.228 171.072 48.684ZM178.128 52.24L180.872 53.108C180.144 55.488 177.988 57.42 174.712 57.42C171.016 57.42 167.74 54.732 167.74 50.112C167.74 45.8 170.932 42.944 174.376 42.944C178.576 42.944 181.04 45.716 181.04 50.028C181.04 50.56 180.984 51.008 180.956 51.064H170.988C171.072 53.136 172.696 54.62 174.712 54.62C176.672 54.62 177.68 53.584 178.128 52.24Z" fill="white"/>
</svg>
